<?xml version="1.0" encoding="UTF-8"?>
<svg version="1.1" xmlns="http://www.w3.org/2000/svg" width="192" height="192">
<path d="M0 0 C63.36 0 126.72 0 192 0 C192 63.36 192 126.72 192 192 C128.64 192 65.28 192 0 192 C0 128.64 0 65.28 0 0 Z " fill="#FEFEFE" transform="translate(0,0)"/>
<path d="M0 0 C0.99 0.33 1.98 0.66 3 1 C4.0625 3.14453125 4.0625 3.14453125 5 5.8125 C6.26087636 9.36922206 7.59972975 12.07467063 10 15 C8.125 18.875 8.125 18.875 7 20 C6.53796696 24.3004614 6.61779745 28.01431973 8.1875 32.0625 C9.86883138 34.27823165 9.86883138 34.27823165 12.6875 34.3125 C13.8321875 34.1578125 13.8321875 34.1578125 15 34 C14.9175 32.783125 14.835 31.56625 14.75 30.3125 C14.73477282 26.0032081 15.96837004 24.12079554 19 21 C19.99 19.515 19.99 19.515 21 18 C22.485 18.495 22.485 18.495 24 19 C24.38897161 20.62171239 24.76078298 22.24754925 25.125 23.875 C25.43824219 25.23238281 25.43824219 25.23238281 25.7578125 26.6171875 C25.87769531 27.79667969 25.87769531 27.79667969 26 29 C25.34 29.66 24.68 30.32 24 31 C24 32.32 24 33.64 24 35 C26.83336529 34.69369024 28.56126519 34.37605841 30.75 32.5 C32.09531212 29.80937577 32.04765105 28.56509221 32.0625 25.625 C32.29872073 22.30142932 32.63246691 21.32398339 35.17578125 19.08203125 C41.87574228 15 41.87574228 15 46 15 C45.25241804 18.80332323 43.65216465 22.07150787 42 25.5625 C38.11711619 33.43630259 38.11711619 33.43630259 38 42 C40.83980205 44.68988908 44.11001464 46.51586534 47.5 48.4375 C48.40621094 48.97826172 49.31242187 49.51902344 50.24609375 50.07617188 C52.48489516 51.40766956 54.73500649 52.71373479 57 54 C56.23940356 61.3524323 56.23940356 61.3524323 54.98512268 64.74516296 C53.94752873 68.17336462 53.77895709 70.84218634 53.82397461 74.41333008 C53.83774391 76.29106865 53.83774391 76.29106865 53.85179138 78.20674133 C53.86497815 79.19926124 53.86497815 79.19926124 53.87843132 80.21183205 C53.91110016 83.02303333 53.90839981 85.83387685 53.90814304 88.64523602 C53.90828611 93.86625433 53.92332317 99.08633207 53.99633789 104.30688477 C54.04595713 107.95193363 54.05119209 111.59480365 54.02820015 115.24008751 C54.02763528 116.61990949 54.04309663 117.99984363 54.07563591 119.379282 C54.31864191 130.1167385 54.31864191 130.1167385 51.02076721 134.82670593 C48.78435484 137.08495416 46.51823503 139.06608975 44 141 C43.12472656 141.77730469 42.24945313 142.55460938 41.34765625 143.35546875 C40.59355469 143.96003906 39.83945313 144.56460938 39.0625 145.1875 C38.1446875 145.92355469 37.226875 146.65960938 36.28125 147.41796875 C35.1885209 148.27994161 34.09466084 149.14048168 33 150 C32.32195312 150.53318848 31.64390625 151.06637695 30.9453125 151.61572266 C26.36024425 155.21439793 21.75354826 158.78380422 17.13574219 162.34033203 C15.19079519 163.8517346 13.26793861 165.3862459 11.3515625 166.93359375 C10.29697295 167.76835292 9.24229302 168.60299794 8.1875 169.4375 C6.84751953 170.51837891 6.84751953 170.51837891 5.48046875 171.62109375 C3 173 3 173 0.60449219 172.75952148 C-2.16749033 171.9511565 -3.85256701 170.95391286 -6.15234375 169.2265625 C-6.92175293 168.65470215 -7.69116211 168.0828418 -8.48388672 167.49365234 C-9.2935791 166.87699707 -10.10327148 166.2603418 -10.9375 165.625 C-11.78070801 164.99158691 -12.62391602 164.35817383 -13.49267578 163.70556641 C-16.00278462 161.81357961 -18.5023148 159.90834375 -21 158 C-21.67401855 157.49017578 -22.34803711 156.98035156 -23.04248047 156.45507812 C-30.84830604 150.54486522 -38.15204199 144.26676164 -45.2578125 137.53125 C-47.76940227 135.03570511 -47.76940227 135.03570511 -50.14024353 133.7328186 C-52 132 -52 132 -52.49879456 129.19418335 C-52.4985453 127.4861705 -52.4985453 127.4861705 -52.49829102 125.74365234 C-52.50832657 124.45155853 -52.51836212 123.15946472 -52.52870178 121.82821655 C-52.52464891 121.13744396 -52.52059605 120.44667137 -52.51642036 119.73496628 C-52.50378023 117.56429669 -52.51509065 115.3948973 -52.53245544 113.22427368 C-52.5591919 109.39061024 -52.56475069 105.55725733 -52.56335449 101.72351074 C-52.56112983 95.60919182 -52.57552724 89.49526145 -52.61894035 83.38109207 C-52.62870082 81.25567077 -52.62009777 79.13087028 -52.61024475 77.00546265 C-52.64456169 70.4694781 -52.83319172 64.81149261 -55.35679626 58.72695923 C-56 57 -56 57 -56 54 C-54.39526367 52.66552734 -54.39526367 52.66552734 -52.16796875 51.3359375 C-51.36939453 50.85382812 -50.57082031 50.37171875 -49.74804688 49.875 C-48.90306641 49.38 -48.05808594 48.885 -47.1875 48.375 C-46.35412109 47.87226562 -45.52074219 47.36953125 -44.66210938 46.8515625 C-38.49062025 43.16354008 -38.49062025 43.16354008 -35 42 C-37.07598767 33.63499084 -39.39477947 26.52754723 -43.828125 19.109375 C-45 17 -45 17 -45 15 C-41.2397015 15.58107632 -38.46964968 16.65199496 -35.1875 18.5625 C-34.39730469 19.01753906 -33.60710938 19.47257812 -32.79296875 19.94140625 C-32.20128906 20.29074219 -31.60960938 20.64007812 -31 21 C-31.0928125 22.8253125 -31.0928125 22.8253125 -31.1875 24.6875 C-31.16667412 28.60970692 -30.67434362 30.96907723 -28 34 C-24.92438754 35.35980881 -24.92438754 35.35980881 -22 36 C-22 34.02 -22 32.04 -22 30 C-22.99 29.67 -23.98 29.34 -25 29 C-24.01 25.7 -23.02 22.4 -22 19 C-20.68 19 -19.36 19 -18 19 C-15.03256687 22.62686272 -14 24.2453678 -14 29 C-13.69595322 30.67225729 -13.36871088 32.34080104 -13 34 C-9.69866765 33.7323244 -8.37496702 33.4396165 -6.1875 30.875 C-4.71535688 27.31086402 -4.58263375 24.82585728 -5 21 C-5.53625 20.29875 -6.0725 19.5975 -6.625 18.875 C-7.07875 18.25625 -7.5325 17.6375 -8 17 C-6.72134516 13.04589891 -4.74655706 9.38992809 -2.875 5.6875 C-2.33617187 4.61886719 -1.79734375 3.55023438 -1.2421875 2.44921875 C-0.83226562 1.64097656 -0.42234375 0.83273437 0 0 Z " fill="#FDFCF9" transform="translate(95,8)"/>
<path d="M0 0 C0.99 0.33 1.98 0.66 3 1 C4.0625 3.14453125 4.0625 3.14453125 5 5.8125 C6.26087636 9.36922206 7.59972975 12.07467063 10 15 C8.125 18.875 8.125 18.875 7 20 C6.53796696 24.3004614 6.61779745 28.01431973 8.1875 32.0625 C9.86883138 34.27823165 9.86883138 34.27823165 12.6875 34.3125 C13.8321875 34.1578125 13.8321875 34.1578125 15 34 C14.9175 32.783125 14.835 31.56625 14.75 30.3125 C14.73477282 26.0032081 15.96837004 24.12079554 19 21 C19.99 19.515 19.99 19.515 21 18 C22.485 18.495 22.485 18.495 24 19 C24.38897161 20.62171239 24.76078298 22.24754925 25.125 23.875 C25.43824219 25.23238281 25.43824219 25.23238281 25.7578125 26.6171875 C25.87769531 27.79667969 25.87769531 27.79667969 26 29 C25.34 29.66 24.68 30.32 24 31 C24 32.32 24 33.64 24 35 C26.83336529 34.69369024 28.56126519 34.37605841 30.75 32.5 C32.09531212 29.80937577 32.04765105 28.56509221 32.0625 25.625 C32.29872073 22.30142932 32.63246691 21.32398339 35.17578125 19.08203125 C41.87574228 15 41.87574228 15 46 15 C45.25241804 18.80332323 43.65216465 22.07150787 42 25.5625 C38.11711619 33.43630259 38.11711619 33.43630259 38 42 C40.83980205 44.68988908 44.11001464 46.51586534 47.5 48.4375 C48.40621094 48.97826172 49.31242187 49.51902344 50.24609375 50.07617188 C52.48489516 51.40766956 54.73500649 52.71373479 57 54 C56.23940356 61.3524323 56.23940356 61.3524323 54.98512268 64.74516296 C53.94752873 68.17336462 53.77895709 70.84218634 53.82397461 74.41333008 C53.83774391 76.29106865 53.83774391 76.29106865 53.85179138 78.20674133 C53.86497815 79.19926124 53.86497815 79.19926124 53.87843132 80.21183205 C53.91110016 83.02303333 53.90839981 85.83387685 53.90814304 88.64523602 C53.90828611 93.86625433 53.92332317 99.08633207 53.99633789 104.30688477 C54.04595713 107.95193363 54.05119209 111.59480365 54.02820015 115.24008751 C54.02763528 116.61990949 54.04309663 117.99984363 54.07563591 119.379282 C54.31864191 130.1167385 54.31864191 130.1167385 51.02076721 134.82670593 C48.78435484 137.08495416 46.51823503 139.06608975 44 141 C43.12472656 141.77730469 42.24945313 142.55460938 41.34765625 143.35546875 C40.59355469 143.96003906 39.83945313 144.56460938 39.0625 145.1875 C38.1446875 145.92355469 37.226875 146.65960938 36.28125 147.41796875 C35.1885209 148.27994161 34.09466084 149.14048168 33 150 C32.32195312 150.53318848 31.64390625 151.06637695 30.9453125 151.61572266 C26.36024425 155.21439793 21.75354826 158.78380422 17.13574219 162.34033203 C15.19079519 163.8517346 13.26793861 165.3862459 11.3515625 166.93359375 C10.29697295 167.76835292 9.24229302 168.60299794 8.1875 169.4375 C6.84751953 170.51837891 6.84751953 170.51837891 5.48046875 171.62109375 C3 173 3 173 0.60449219 172.75952148 C-2.16749033 171.9511565 -3.85256701 170.95391286 -6.15234375 169.2265625 C-6.92175293 168.65470215 -7.69116211 168.0828418 -8.48388672 167.49365234 C-9.2935791 166.87699707 -10.10327148 166.2603418 -10.9375 165.625 C-11.78070801 164.99158691 -12.62391602 164.35817383 -13.49267578 163.70556641 C-16.00278462 161.81357961 -18.5023148 159.90834375 -21 158 C-21.67401855 157.49017578 -22.34803711 156.98035156 -23.04248047 156.45507812 C-30.84830604 150.54486522 -38.15204199 144.26676164 -45.2578125 137.53125 C-47.76940227 135.03570511 -47.76940227 135.03570511 -50.14024353 133.7328186 C-52 132 -52 132 -52.49879456 129.19418335 C-52.4985453 127.4861705 -52.4985453 127.4861705 -52.49829102 125.74365234 C-52.50832657 124.45155853 -52.51836212 123.15946472 -52.52870178 121.82821655 C-52.52464891 121.13744396 -52.52059605 120.44667137 -52.51642036 119.73496628 C-52.50378023 117.56429669 -52.51509065 115.3948973 -52.53245544 113.22427368 C-52.5591919 109.39061024 -52.56475069 105.55725733 -52.56335449 101.72351074 C-52.56112983 95.60919182 -52.57552724 89.49526145 -52.61894035 83.38109207 C-52.62870082 81.25567077 -52.62009777 79.13087028 -52.61024475 77.00546265 C-52.64456169 70.4694781 -52.83319172 64.81149261 -55.35679626 58.72695923 C-56 57 -56 57 -56 54 C-54.39526367 52.66552734 -54.39526367 52.66552734 -52.16796875 51.3359375 C-51.36939453 50.85382812 -50.57082031 50.37171875 -49.74804688 49.875 C-48.90306641 49.38 -48.05808594 48.885 -47.1875 48.375 C-46.35412109 47.87226562 -45.52074219 47.36953125 -44.66210938 46.8515625 C-38.49062025 43.16354008 -38.49062025 43.16354008 -35 42 C-37.07598767 33.63499084 -39.39477947 26.52754723 -43.828125 19.109375 C-45 17 -45 17 -45 15 C-41.2397015 15.58107632 -38.46964968 16.65199496 -35.1875 18.5625 C-34.39730469 19.01753906 -33.60710938 19.47257812 -32.79296875 19.94140625 C-32.20128906 20.29074219 -31.60960938 20.64007812 -31 21 C-31.0928125 22.8253125 -31.0928125 22.8253125 -31.1875 24.6875 C-31.16667412 28.60970692 -30.67434362 30.96907723 -28 34 C-24.92438754 35.35980881 -24.92438754 35.35980881 -22 36 C-22 34.02 -22 32.04 -22 30 C-22.99 29.67 -23.98 29.34 -25 29 C-24.01 25.7 -23.02 22.4 -22 19 C-20.68 19 -19.36 19 -18 19 C-15.03256687 22.62686272 -14 24.2453678 -14 29 C-13.69595322 30.67225729 -13.36871088 32.34080104 -13 34 C-9.69866765 33.7323244 -8.37496702 33.4396165 -6.1875 30.875 C-4.71535688 27.31086402 -4.58263375 24.82585728 -5 21 C-5.53625 20.29875 -6.0725 19.5975 -6.625 18.875 C-7.07875 18.25625 -7.5325 17.6375 -8 17 C-6.72134516 13.04589891 -4.74655706 9.38992809 -2.875 5.6875 C-2.33617187 4.61886719 -1.79734375 3.55023438 -1.2421875 2.44921875 C-0.83226562 1.64097656 -0.42234375 0.83273437 0 0 Z M-39.625 56 C-40.85089844 56.8353125 -40.85089844 56.8353125 -42.1015625 57.6875 C-42.72804688 58.120625 -43.35453125 58.55375 -44 59 C-43.83209961 60.20487061 -43.66419922 61.40974121 -43.49121094 62.65112305 C-42.79207534 68.96664284 -43.01634039 75.23938182 -43.140625 81.58203125 C-43.16659609 84.91688277 -43.1858705 88.25161055 -43.20027542 91.5865221 C-43.21891714 95.04393748 -43.26088807 98.49805158 -43.35302734 101.9543457 C-44.53101943 117.89506104 -44.53101943 117.89506104 -39.3840332 132.28320312 C-36.78777447 134.98964475 -33.91345851 137.04857261 -30.70159912 138.9670105 C-28.17044576 140.50359736 -25.9368482 142.38327231 -23.63671875 144.2421875 C-21.9926332 145.4607904 -20.3430046 146.67195602 -18.6875 147.875 C-17.85927734 148.48601562 -17.03105469 149.09703125 -16.17773438 149.7265625 C-14.55975278 150.91996737 -12.93736716 152.10743084 -11.31005859 153.28808594 C-9.76777221 154.4310274 -8.2492819 155.60678281 -6.75634766 156.81347656 C-5.71099854 157.65217285 -5.71099854 157.65217285 -4.64453125 158.5078125 C-3.73151245 159.26408936 -3.73151245 159.26408936 -2.80004883 160.03564453 C-1.03392194 161.2022769 -1.03392194 161.2022769 1.05639648 160.76074219 C14.54264718 155.48211423 27.8514898 142.2774808 38.26977539 132.43994141 C41.82141236 129.08929382 41.82141236 129.08929382 44 128 C44.01030746 127.22405487 44.02061493 126.44810974 44.03123474 125.64865112 C44.12937497 118.32180793 44.23191224 110.9950455 44.33933926 103.66833305 C44.39440939 99.90196406 44.44780306 96.13558712 44.49731445 92.36914062 C44.5451938 88.73160509 44.59754348 85.09415842 44.65294075 81.45672989 C44.67325801 80.07175038 44.6919879 78.68674662 44.70907402 77.30172348 C44.73335482 75.35587641 44.76389819 73.41011059 44.79467773 71.46435547 C44.81022202 70.35849091 44.8257663 69.25262634 44.84178162 68.11325073 C44.99963284 65.00722454 45.42681571 62.05433778 46 59 C44.56839732 57.99157547 43.12948547 56.99352109 41.6875 56 C40.88699219 55.443125 40.08648437 54.88625 39.26171875 54.3125 C37.00336982 52.74904036 37.00336982 52.74904036 34 53 C33.67 55.64 33.34 58.28 33 61 C26.59896093 61.81330469 20.36659621 62.1476739 13.91796875 62.1328125 C12.5148217 62.13424759 12.5148217 62.13424759 11.08332825 62.13571167 C9.11601697 62.13638808 7.14870339 62.13457163 5.18139648 62.13037109 C2.20616514 62.12503349 -0.76891401 62.13032517 -3.74414062 62.13671875 C-13.21052849 62.13969289 -22.58473471 62.09390008 -32 61 C-32.33 58.36 -32.66 55.72 -33 53 C-35.87277077 53 -37.2767056 54.38974098 -39.625 56 Z " fill="#A76B1B" transform="translate(95,8)"/>
<path d="M0 0 C0.66 0.33 1.32 0.66 2 1 C1.67 14.2 1.34 27.4 1 41 C7.93 41.495 7.93 41.495 15 42 C16.32 42.66 17.64 43.32 19 44 C13.98725646 44.28992333 8.97424522 44.57449362 3.9609375 44.85449219 C2.26196458 44.95009149 0.56306775 45.04705481 -1.13574219 45.14550781 C-11.43940566 45.74158752 -21.67527447 46.15242572 -32 46 C-32 46.66 -32 47.32 -32 48 C-32.969375 48.37125 -33.93875 48.7425 -34.9375 49.125 C-39.68230842 51.13765439 -43.79434641 54.0531815 -48 57 C-47.36619533 61.70259575 -47.36619533 61.70259575 -46.47569275 66.36054993 C-45.94613213 69.29889369 -45.85349439 72.05809944 -45.82641602 75.04370117 C-45.81292618 76.23811325 -45.79943634 77.43252533 -45.78553772 78.66313171 C-45.77509933 79.94347794 -45.76466095 81.22382416 -45.75390625 82.54296875 C-45.73839397 83.87625431 -45.72218367 85.20953192 -45.70530701 86.5428009 C-45.63474144 92.19144549 -45.57422128 97.84015907 -45.52319336 103.48901367 C-45.49759485 106.28087637 -45.46681155 109.07259155 -45.43040466 111.86433411 C-45.39647315 114.4940317 -45.37061009 117.12384764 -45.35340881 119.75370789 C-45.33676682 120.93866348 -45.32012482 122.12361908 -45.30297852 123.34448242 C-45.29267105 124.39085373 -45.28236359 125.43722504 -45.27174377 126.51530457 C-45.2433197 129.17404008 -45.2433197 129.17404008 -43 131 C-42.01 131 -41.02 131 -40 131 C-35.83414696 132.27553806 -33.45739285 134.21780898 -30.375 137.25 C-23.12271308 144.04591866 -15.08123947 149.73678408 -7.02368164 155.53295898 C-5.61265174 156.55586629 -4.22530273 157.61190049 -2.85766602 158.69213867 C-1.12161414 160.19490421 -1.12161414 160.19490421 0.8828125 159.9296875 C14.46758216 153.96441964 27.65464078 141.64023466 38.18188477 131.35205078 C41.6844032 128 41.6844032 128 45 128 C44.99000725 126.9024514 44.99000725 126.9024514 44.97981262 125.7827301 C44.91945834 118.85428012 44.87390273 111.92586992 44.84456348 104.99722385 C44.82897223 101.43594114 44.80785545 97.87487742 44.77368164 94.3137207 C44.73455615 90.21042901 44.72023683 86.10736386 44.70703125 82.00390625 C44.69154739 80.73793106 44.67606354 79.47195587 44.66011047 78.1676178 C44.65755041 64.60355837 44.65755041 64.60355837 48 59 C48.99 58.67 49.98 58.34 51 58 C50.835 59.02617432 50.67 60.05234863 50.5 61.10961914 C49.70912123 67.46945758 49.94368077 73.84950419 50 80.24609375 C50.00463357 83.05013904 50.00025076 85.85415856 49.99609375 88.65820312 C49.98989536 93.05399732 49.99529853 97.44850216 50.05126953 101.84399414 C50.09579531 105.42011541 50.09595834 108.99389336 50.06713867 112.57014656 C50.06260728 114.57366214 50.10399316 116.57711486 50.14648438 118.58018494 C50.05734921 125.41086327 49.51293598 129.29022835 44.59936523 134.25146484 C43.09475545 135.535167 41.56477999 136.79036973 40 138 C39.12472656 138.77730469 38.24945313 139.55460938 37.34765625 140.35546875 C34.57265995 142.58020938 31.79519023 144.8007109 29 147 C28.30600098 147.54914063 27.61200195 148.09828125 26.89697266 148.6640625 C24.56043516 150.51051163 22.21872655 152.35018623 19.875 154.1875 C19.13515869 154.76975342 18.39531738 155.35200684 17.63305664 155.9519043 C13.87854162 158.87605788 10.07760522 161.73574365 6.1953125 164.48828125 C5.48648926 164.99528564 4.77766602 165.50229004 4.04736328 166.0246582 C2 167 2 167 -0.07495117 166.77783203 C-3.17805465 165.5239972 -5.76043906 163.53407925 -8.4375 161.5625 C-9.05077148 161.11656494 -9.66404297 160.67062988 -10.29589844 160.21118164 C-12.2042421 158.81664164 -14.10354273 157.41065314 -16 156 C-16.58088379 155.56913086 -17.16176758 155.13826172 -17.76025391 154.69433594 C-25.91001144 148.62012817 -33.70787523 142.20778812 -40.9609375 135.0703125 C-41.55132812 134.51085937 -42.14171875 133.95140625 -42.75 133.375 C-43.23984375 132.88773438 -43.7296875 132.40046875 -44.234375 131.8984375 C-46.92088459 130.53140829 -49.1202937 131.44576116 -52 132 C-52.00586624 131.19313248 -52.01173248 130.38626495 -52.01777649 129.5549469 C-52.0758812 121.91986756 -52.14805832 114.28510796 -52.23571491 106.65031528 C-52.28028364 102.72596384 -52.31956865 98.80171299 -52.34643555 94.87719727 C-52.37260435 91.08388972 -52.41310031 87.29097209 -52.46318626 83.49790764 C-52.47976385 82.05682189 -52.49133449 80.61566884 -52.49761391 79.17450142 C-52.53182257 72.03968196 -52.59522223 65.41475598 -55.36174011 58.72325134 C-56 57 -56 57 -56 54 C-54.39526367 52.66552734 -54.39526367 52.66552734 -52.16796875 51.3359375 C-51.36939453 50.85382812 -50.57082031 50.37171875 -49.74804688 49.875 C-48.90306641 49.38 -48.05808594 48.885 -47.1875 48.375 C-46.35412109 47.87226562 -45.52074219 47.36953125 -44.66210938 46.8515625 C-38.49062025 43.16354008 -38.49062025 43.16354008 -35 42 C-37.07598767 33.63499084 -39.39477947 26.52754723 -43.828125 19.109375 C-45 17 -45 17 -45 15 C-41.2397015 15.58107632 -38.46964968 16.65199496 -35.1875 18.5625 C-34.39730469 19.01753906 -33.60710938 19.47257812 -32.79296875 19.94140625 C-32.20128906 20.29074219 -31.60960938 20.64007812 -31 21 C-31.0928125 22.8253125 -31.0928125 22.8253125 -31.1875 24.6875 C-31.16667412 28.60970692 -30.67434362 30.96907723 -28 34 C-24.92438754 35.35980881 -24.92438754 35.35980881 -22 36 C-22 34.02 -22 32.04 -22 30 C-22.99 29.67 -23.98 29.34 -25 29 C-24.01 25.7 -23.02 22.4 -22 19 C-20.68 19 -19.36 19 -18 19 C-15.03256687 22.62686272 -14 24.2453678 -14 29 C-13.69595322 30.67225729 -13.36871088 32.34080104 -13 34 C-9.69866765 33.7323244 -8.37496702 33.4396165 -6.1875 30.875 C-4.71535688 27.31086402 -4.58263375 24.82585728 -5 21 C-5.53625 20.29875 -6.0725 19.5975 -6.625 18.875 C-7.07875 18.25625 -7.5325 17.6375 -8 17 C-6.72134516 13.04589891 -4.74655706 9.38992809 -2.875 5.6875 C-2.33617187 4.61886719 -1.79734375 3.55023438 -1.2421875 2.44921875 C-0.83226562 1.64097656 -0.42234375 0.83273437 0 0 Z " fill="#DEAF40" transform="translate(95,8)"/>
<path d="M0 0 C6.9309521 3.65332428 13.56852529 7.52178798 20 12 C19.23940356 19.3524323 19.23940356 19.3524323 17.98512268 22.74516296 C16.94752873 26.17336462 16.77895709 28.84218634 16.82397461 32.41333008 C16.83774391 34.29106865 16.83774391 34.29106865 16.85179138 36.20674133 C16.86497815 37.19926124 16.86497815 37.19926124 16.87843132 38.21183205 C16.91110016 41.02303333 16.90839981 43.83387685 16.90814304 46.64523602 C16.90828611 51.86625433 16.92332317 57.08633207 16.99633789 62.30688477 C17.04595713 65.95193363 17.05119209 69.59480365 17.02820015 73.24008751 C17.02763528 74.61990949 17.04309663 75.99984363 17.07563591 77.379282 C17.31864191 88.1167385 17.31864191 88.1167385 14.02076721 92.82670593 C11.78435484 95.08495416 9.51823503 97.06608975 7 99 C6.12472656 99.77730469 5.24945313 100.55460937 4.34765625 101.35546875 C3.59355469 101.96003906 2.83945313 102.56460938 2.0625 103.1875 C1.1446875 103.92355469 0.226875 104.65960938 -0.71875 105.41796875 C-1.8114791 106.27994161 -2.90533916 107.14048168 -4 108 C-4.67804688 108.53318848 -5.35609375 109.06637695 -6.0546875 109.61572266 C-10.63975575 113.21439793 -15.24645174 116.78380422 -19.86425781 120.34033203 C-21.80920481 121.8517346 -23.73206139 123.3862459 -25.6484375 124.93359375 C-26.70302705 125.76835292 -27.75770698 126.60299794 -28.8125 127.4375 C-30.15248047 128.51837891 -30.15248047 128.51837891 -31.51953125 129.62109375 C-34 131 -34 131 -36.39550781 130.75952148 C-39.16749033 129.9511565 -40.85256701 128.95391286 -43.15234375 127.2265625 C-43.92175293 126.65470215 -44.69116211 126.0828418 -45.48388672 125.49365234 C-46.69842529 124.56866943 -46.69842529 124.56866943 -47.9375 123.625 C-48.78070801 122.99158691 -49.62391602 122.35817383 -50.49267578 121.70556641 C-53.00278462 119.81357961 -55.5023148 117.90834375 -58 116 C-58.67401855 115.49017578 -59.34803711 114.98035156 -60.04248047 114.45507812 C-66.68004609 109.42941804 -73.05160073 104.19266493 -79.1875 98.5625 C-79.72874512 98.0660498 -80.26999023 97.56959961 -80.82763672 97.05810547 C-83.51444268 94.54475262 -85.91255732 92.03432389 -88 89 C-85.859375 88.1796875 -85.859375 88.1796875 -83 88 C-80.83227775 89.64127542 -79.12092126 91.1890876 -77.25 93.125 C-70.34435421 99.87529382 -62.89666099 105.64771905 -55.14746094 111.39208984 C-52.99650092 113.00261993 -50.87551778 114.64684654 -48.7578125 116.30078125 C-47.42222924 117.32598249 -46.08630675 118.35074199 -44.75 119.375 C-44.14236816 119.85783447 -43.53473633 120.34066895 -42.90869141 120.83813477 C-40.48547796 122.66627457 -38.66284995 123.95380462 -35.58984375 124.16796875 C-31.5480783 122.34521178 -28.26940814 119.68700111 -24.8125 116.9375 C-24.05291992 116.34404785 -23.29333984 115.7505957 -22.51074219 115.13916016 C-20.33366113 113.4345698 -18.16603899 111.71858441 -16 110 C-15.04996094 109.25621094 -14.09992188 108.51242188 -13.12109375 107.74609375 C-8.38014858 104.0048866 -3.74511892 100.13866437 0.875 96.25 C1.69726074 95.55946533 1.69726074 95.55946533 2.53613281 94.85498047 C4.03624205 93.58419615 5.51868244 92.29264025 7 91 C7.70852615 90.41446854 8.41705231 89.82893707 9.14704895 89.22566223 C11.57336565 86.31130492 11.5097669 84.63592424 11.5300293 80.8737793 C11.54652023 79.63536789 11.56301117 78.39695648 11.58000183 77.12101746 C11.57834654 75.77208419 11.57641191 74.42315125 11.57421875 73.07421875 C11.58667243 71.68421169 11.60100903 70.29422033 11.61714172 68.9042511 C11.65516542 65.24578621 11.67034988 61.58759163 11.67993164 57.92895508 C11.69966585 52.0844471 11.75682216 46.24014518 11.80869484 40.39585304 C11.82393196 38.36249059 11.83121325 36.32923139 11.83683777 34.29582214 C11.84387222 33.04795425 11.85090668 31.80008636 11.8581543 30.5144043 C11.86163376 29.42282516 11.86511322 28.33124603 11.86869812 27.20658875 C12.01020231 23.75084439 12.45787571 20.4139497 13 17 C10.61784246 17.89933414 10.61784246 17.89933414 9.90087891 21.19335938 C8.50402233 27.35462576 8.64307805 33.61829918 8.5859375 39.90625 C8.56719558 41.2400427 8.54761999 42.57382391 8.5272522 43.90759277 C8.47624378 47.39267157 8.43645226 50.87778868 8.39910889 54.36303711 C8.35887126 57.92961865 8.3078698 61.49604516 8.2578125 65.0625 C8.16142464 72.04155297 8.07690287 79.02070583 8 86 C7.67 86 7.34 86 7 86 C6.95357826 77.88945912 6.91808095 69.77897412 6.89637566 61.66833305 C6.88595613 57.9018877 6.87183054 54.13553352 6.84912109 50.36914062 C6.82732717 46.73166131 6.81541761 43.09426948 6.81024551 39.45672989 C6.80656148 38.07171375 6.79936753 36.68670219 6.78853989 35.30172348 C6.7739387 33.35598199 6.77318234 31.41015173 6.77294922 29.46435547 C6.768508 28.35849091 6.76406677 27.25262634 6.75949097 26.11325073 C7.01568197 22.797006 7.82291313 20.09967787 9 17 C8.2575 16.7525 7.515 16.505 6.75 16.25 C3.47939792 14.76336269 1.99421815 14.0282572 0 11 C-0.33546893 7.30984179 -0.22931633 3.69454091 0 0 Z " fill="#9C6319" transform="translate(132,50)"/>
<path d="M0 0 C0.68946207 2.14499311 1.11926082 3.55228666 0.53125 5.75971985 C-0.14115612 8.59525506 -0.09371971 11.17970822 -0.0625 14.09448242 C-0.053396 15.32643845 -0.04429199 16.55839447 -0.03491211 17.8276825 C-0.02861786 18.48355536 -0.02232361 19.13942822 -0.01583862 19.81517601 C0.01130941 23.31231916 0.00124726 26.80942151 -0.00390625 30.30664062 C-0.01010098 34.7463741 -0.00491806 39.18483554 0.05126953 43.62426758 C0.09580686 47.22170871 0.0959425 50.81681991 0.06713867 54.41439247 C0.06260068 56.43562455 0.10402504 58.45679368 0.14648438 60.47758484 C0.05784156 67.34155792 -0.46056098 71.27250653 -5.40063477 76.26025391 C-6.90502255 77.54136532 -8.43497568 78.79371317 -10 80 C-10.87527344 80.77730469 -11.75054687 81.55460937 -12.65234375 82.35546875 C-15.42734005 84.58020938 -18.20480977 86.8007109 -21 89 C-21.69399902 89.54914063 -22.38799805 90.09828125 -23.10302734 90.6640625 C-25.43956484 92.51051163 -27.78127345 94.35018623 -30.125 96.1875 C-30.86484131 96.76975342 -31.60468262 97.35200684 -32.36694336 97.9519043 C-36.12145838 100.87605788 -39.92239478 103.73574365 -43.8046875 106.48828125 C-44.51351074 106.99528564 -45.22233398 107.50229004 -45.95263672 108.0246582 C-48 109 -48 109 -50.07495117 108.77783203 C-53.17805465 107.5239972 -55.76043906 105.53407925 -58.4375 103.5625 C-59.35740723 102.89359741 -59.35740723 102.89359741 -60.29589844 102.21118164 C-62.2042421 100.81664164 -64.10354273 99.41065314 -66 98 C-66.58088379 97.56913086 -67.16176758 97.13826172 -67.76025391 96.69433594 C-74.24878762 91.85827771 -80.48661965 86.84925343 -86.390625 81.30078125 C-88.81427071 79.00895935 -88.81427071 79.00895935 -91.20036316 77.73721313 C-95.07046907 75.33295925 -97.60629833 73.55541184 -98.75546265 69.0153656 C-98.94558957 65.29970947 -98.85570963 61.68814159 -98.66015625 57.97265625 C-98.62087822 56.61513554 -98.5856583 55.2574919 -98.55430603 53.89976501 C-98.46140576 50.34493384 -98.31384525 46.79445152 -98.15441895 43.24206543 C-98.00122948 39.6096646 -97.90034662 35.97584203 -97.79492188 32.34179688 C-97.58082947 25.22562703 -97.30889585 18.1127372 -97 11 C-96.67 11 -96.34 11 -96 11 C-95.99191315 11.74724335 -95.98382629 12.49448669 -95.97549438 13.26437378 C-95.89763091 20.29821944 -95.81036564 27.3318704 -95.71247292 34.36546135 C-95.6624757 37.98172018 -95.61614629 41.59794932 -95.578125 45.21435547 C-95.54131498 48.70283089 -95.49496736 52.19105986 -95.44193649 55.6793251 C-95.41431889 57.66128773 -95.39664221 59.64338072 -95.37905884 61.62545776 C-95.35918915 62.82655182 -95.33931946 64.02764587 -95.31884766 65.26513672 C-95.30552399 66.32658905 -95.29220032 67.38804138 -95.2784729 68.48165894 C-95.24678719 71.16995032 -95.24678719 71.16995032 -93 73 C-92.01 73 -91.02 73 -90 73 C-85.83414696 74.27553806 -83.45739285 76.21780898 -80.375 79.25 C-73.12271308 86.04591866 -65.08123947 91.73678408 -57.02368164 97.53295898 C-55.61265174 98.55586629 -54.22530273 99.61190049 -52.85766602 100.69213867 C-51.12161414 102.19490421 -51.12161414 102.19490421 -49.1171875 101.9296875 C-35.53241784 95.96441964 -22.34535922 83.64023466 -11.81811523 73.35205078 C-8.3155968 70 -8.3155968 70 -5 70 C-5.00999275 68.9024514 -5.00999275 68.9024514 -5.02018738 67.7827301 C-5.08054166 60.85428012 -5.12609727 53.92586992 -5.15543652 46.99722385 C-5.17102777 43.43594114 -5.19214455 39.87487742 -5.22631836 36.3137207 C-5.26544385 32.21042901 -5.27976317 28.10736386 -5.29296875 24.00390625 C-5.30845261 22.73793106 -5.32393646 21.47195587 -5.33988953 20.1676178 C-5.34115404 13.46782555 -5.22944103 7.04258624 -2 1 C-1.34 0.67 -0.68 0.34 0 0 Z " fill="#E6BA4A" transform="translate(145,66)"/>
<path d="M0 0 C0.66 0 1.32 0 2 0 C2.25394531 0.67546875 2.50789063 1.3509375 2.76953125 2.046875 C3.28580078 3.38492187 3.28580078 3.38492187 3.8125 4.75 C4.14894531 5.63171875 4.48539062 6.5134375 4.83203125 7.421875 C5.96846822 9.93039808 7.26542927 11.87279005 9 14 C7.125 17.875 7.125 17.875 6 19 C5.53796696 23.3004614 5.61779745 27.01431973 7.1875 31.0625 C8.86883138 33.27823165 8.86883138 33.27823165 11.6875 33.3125 C12.8321875 33.1578125 12.8321875 33.1578125 14 33 C13.87625 31.1746875 13.87625 31.1746875 13.75 29.3125 C13.73477282 25.0032081 14.96837004 23.12079554 18 20 C18.66 19.01 19.32 18.02 20 17 C20.99 17.33 21.98 17.66 23 18 C23.38897161 19.62171239 23.76078298 21.24754925 24.125 22.875 C24.33382812 23.77992187 24.54265625 24.68484375 24.7578125 25.6171875 C24.83773437 26.40351562 24.91765625 27.18984375 25 28 C24.34 28.66 23.68 29.32 23 30 C23 31.32 23 32.64 23 34 C25.83336529 33.69369024 27.56126519 33.37605841 29.75 31.5 C31.09531212 28.80937577 31.04765105 27.56509221 31.0625 24.625 C31.29872073 21.30142932 31.63246691 20.32398339 34.17578125 18.08203125 C40.87574228 14 40.87574228 14 45 14 C44.27787098 17.69088163 42.7188929 20.76361588 41.0625 24.125 C38.41593376 29.75370188 36.93395968 34.88987824 36 41 C35.64453125 43.21484375 35.64453125 43.21484375 35 45 C31.36107392 46.21297536 28.75424002 45.92580441 24.92578125 45.66015625 C24.2419487 45.61434921 23.55811615 45.56854218 22.8535614 45.52134705 C20.67278403 45.37397891 18.49268618 45.21834765 16.3125 45.0625 C14.83271958 44.96104321 13.35290211 44.86012532 11.87304688 44.75976562 C8.24824734 44.51275865 4.62401157 44.25833849 1 44 C1 43.67 1 43.34 1 43 C7.435 42.505 7.435 42.505 14 42 C9.05 41.67 4.1 41.34 -1 41 C-0.67 27.47 -0.34 13.94 0 0 Z " fill="#A6630E" transform="translate(96,9)"/>
<path d="M0 0 C10 0 10 0 13.625 2.5 C14.800625 3.7375 14.800625 3.7375 16 5 C16.515625 4.175 17.03125 3.35 17.5625 2.5 C20 0 20 0 23.75 -0.3125 C24.8225 -0.209375 25.895 -0.10625 27 0 C27.33 1.65 27.66 3.3 28 5 C27.34 5 26.68 5 26 5 C25.67 4.34 25.34 3.68 25 3 C24.01 3 23.02 3 22 3 C22 3.99 22 4.98 22 6 C23.55311425 7.2456467 23.55311425 7.2456467 25.5 8.3125 C28.9128558 10.60389 28.9128558 10.60389 29.6875 14.125 C29 17 29 17 27.5 18.875 C23.87739877 20.50517055 20.95453342 20.19772667 17 20 C17 18.02 17 16.04 17 14 C17.66 14 18.32 14 19 14 C19.33 14.66 19.66 15.32 20 16 C22.52733235 16.65555119 22.52733235 16.65555119 25 17 C24.95231597 15.12119128 24.95231597 15.12119128 24 13 C21.02236957 10.73674754 21.02236957 10.73674754 18 9 C17.566875 10.093125 17.13375 11.18625 16.6875 12.3125 C15.49320901 15.08796498 14.46894351 17.14829237 12 19 C9 20 9 20 1 20 C0.67 13.4 0.34 6.8 0 0 Z " fill="#F1D17B" transform="translate(104,88)"/>
<path d="M0 0 C0.66 0 1.32 0 2 0 C2.25394531 0.67546875 2.50789063 1.3509375 2.76953125 2.046875 C3.28580078 3.38492187 3.28580078 3.38492187 3.8125 4.75 C4.14894531 5.63171875 4.48539062 6.5134375 4.83203125 7.421875 C5.96846822 9.93039808 7.26542927 11.87279005 9 14 C7.125 17.875 7.125 17.875 6 19 C5.53796696 23.3004614 5.61779745 27.01431973 7.1875 31.0625 C8.86883138 33.27823165 8.86883138 33.27823165 11.6875 33.3125 C12.8321875 33.1578125 12.8321875 33.1578125 14 33 C13.87625 31.1746875 13.87625 31.1746875 13.75 29.3125 C13.73477282 25.0032081 14.96837004 23.12079554 18 20 C18.66 19.01 19.32 18.02 20 17 C20.99 17.33 21.98 17.66 23 18 C23.33 20.64 23.66 23.28 24 26 C22.68 26.33 21.36 26.66 20 27 C18.68 31.95 17.36 36.9 16 42 C10.39 41.67 4.78 41.34 -1 41 C-0.67 27.47 -0.34 13.94 0 0 Z " fill="#C9861B" transform="translate(96,9)"/>
<path d="M0 0 C0.33 0 0.66 0 1 0 C1.00808685 0.74724335 1.01617371 1.49448669 1.02450562 2.26437378 C1.10236909 9.29821944 1.18963436 16.3318704 1.28752708 23.36546135 C1.3375243 26.98172018 1.38385371 30.59794932 1.421875 34.21435547 C1.45868502 37.70283089 1.50503264 41.19105986 1.55806351 44.6793251 C1.58568111 46.66128773 1.60335779 48.64338072 1.62094116 50.62545776 C1.64081085 51.82655182 1.66068054 53.02764587 1.68115234 54.26513672 C1.69447601 55.32658905 1.70779968 56.38804138 1.7215271 57.48165894 C1.75321281 60.16995032 1.75321281 60.16995032 4 62 C4.99 62 5.98 62 7 62 C11.16585304 63.27553806 13.54260715 65.21780898 16.625 68.25 C23.87728692 75.04591866 31.91876053 80.73678408 39.97631836 86.53295898 C41.38737364 87.55588469 42.77488962 88.61173637 44.14282227 89.69165039 C45.87719641 91.1926886 45.87719641 91.1926886 47.875 90.9375 C50.8312527 89.63327087 53.36462398 87.8567422 56 86 C56.99 86.495 56.99 86.495 58 87 C57.02546875 87.68835938 57.02546875 87.68835938 56.03125 88.390625 C55.1959375 89.00421875 54.360625 89.6178125 53.5 90.25 C52.6646875 90.85328125 51.829375 91.4565625 50.96875 92.078125 C50.3190625 92.71234375 49.669375 93.3465625 49 94 C49 95.32 49 96.64 49 98 C44.82380583 97.41798761 41.8649589 94.99466706 38.5625 92.5625 C37.64259277 91.89359741 37.64259277 91.89359741 36.70410156 91.21118164 C34.7957579 89.81664164 32.89645727 88.41065314 31 87 C30.41911621 86.56913086 29.83823242 86.13826172 29.23974609 85.69433594 C22.75121238 80.85827771 16.51338035 75.84925343 10.609375 70.30078125 C8.18572929 68.00895935 8.18572929 68.00895935 5.79963684 66.73721313 C1.92953093 64.33295925 -0.60629833 62.55541184 -1.75546265 58.0153656 C-1.94558957 54.29970947 -1.85570963 50.68814159 -1.66015625 46.97265625 C-1.62087822 45.61513554 -1.5856583 44.2574919 -1.55430603 42.89976501 C-1.46140576 39.34493384 -1.31384525 35.79445152 -1.15441895 32.24206543 C-1.00122948 28.6096646 -0.90034662 24.97584203 -0.79492188 21.34179688 C-0.58082947 14.22562703 -0.30889585 7.1127372 0 0 Z " fill="#D9A336" transform="translate(48,77)"/>
<path d="M0 0 C0.66 0.33 1.32 0.66 2 1 C1.67 15.19 1.34 29.38 1 44 C-5.6 44 -12.2 44 -19 44 C-19 43.67 -19 43.34 -19 43 C-18.071875 42.7525 -17.14375 42.505 -16.1875 42.25 C-12.83541675 40.93545755 -11.8122197 40.02036616 -10 37 C-10.99 36.67 -11.98 36.34 -13 36 C-11.576875 35.13375 -11.576875 35.13375 -10.125 34.25 C-6.56268057 31.76250049 -6.56268057 31.76250049 -5 28 C-4.4687938 23.08814832 -4.4687938 23.08814832 -6.625 18.875 C-7.07875 18.25625 -7.5325 17.6375 -8 17 C-6.72134516 13.04589891 -4.74655706 9.38992809 -2.875 5.6875 C-2.33617188 4.61886719 -1.79734375 3.55023438 -1.2421875 2.44921875 C-0.83226563 1.64097656 -0.42234375 0.83273437 0 0 Z " fill="#F9DC5F" transform="translate(95,8)"/>
<path d="M0 0 C3.14658642 1.22957196 4.97272085 3.25325858 7.38671875 5.609375 C14.17972897 12.05755695 21.52769148 17.65552703 29.03564453 23.23974609 C31.18737744 24.85051072 33.31762438 26.48655837 35.4453125 28.12890625 C36.77948402 29.14383926 38.11409963 30.15818885 39.44921875 31.171875 C40.05677002 31.64625 40.66432129 32.120625 41.2902832 32.609375 C44.68603268 35.15224966 46.91257539 36.46369502 51.19921875 35.859375 C50.20921875 37.839375 49.21921875 39.819375 48.19921875 41.859375 C49.18921875 42.354375 49.18921875 42.354375 50.19921875 42.859375 C46.42822636 42.30956702 44.0863145 41.36884471 41.046875 39.0859375 C40.27746582 38.51407715 39.50805664 37.9422168 38.71533203 37.35302734 C37.50079346 36.42804443 37.50079346 36.42804443 36.26171875 35.484375 C35.41851074 34.85096191 34.57530273 34.21754883 33.70654297 33.56494141 C31.19643413 31.67295461 28.69690395 29.76771875 26.19921875 27.859375 C25.5252002 27.34955078 24.85118164 26.83972656 24.15673828 26.31445312 C17.51917266 21.28879304 11.14761802 16.05203993 5.01171875 10.421875 C4.47047363 9.9254248 3.92922852 9.42897461 3.37158203 8.91748047 C0.68477607 6.40412762 -1.71333857 3.89369889 -3.80078125 0.859375 C-1.80078125 -0.140625 -1.80078125 -0.140625 0 0 Z " fill="#B4761D" transform="translate(47.80078125,138.140625)"/>
<path d="M0 0 C2.1953125 0.546875 2.1953125 0.546875 5.2578125 3.109375 C7.51419763 7.11263895 7.92188064 9.02600654 7.1953125 13.546875 C5.7578125 16.921875 5.7578125 16.921875 3.1953125 19.546875 C0.09272359 20.7392879 -2.51792322 21.07322515 -5.8046875 20.546875 C-9.17775292 17.93102835 -10.43037507 16.45519997 -11.2421875 12.31640625 C-11.4477433 8.48150578 -11.00924695 5.98267558 -9.3671875 2.484375 C-6.12809232 0.03530303 -4.00061294 -0.23766017 0 0 Z " fill="#ECC253" transform="translate(81.8046875,87.453125)"/>
<path d="M0 0 C-0.99 0.66 -1.98 1.32 -3 2 C-3.33 1.67 -3.66 1.34 -4 1 C-4.33 1.66 -4.66 2.32 -5 3 C-5.99 3 -6.98 3 -8 3 C-8 3.99 -8 4.98 -8 6 C-5.69 6 -3.38 6 -1 6 C-0.505 6.99 -0.505 6.99 0 8 C-3.97050699 8.73960424 -7.72858664 9.12807578 -11.765625 9.1328125 C-12.82007812 9.13410156 -13.87453125 9.13539062 -14.9609375 9.13671875 C-16.58902344 9.13091797 -16.58902344 9.13091797 -18.25 9.125 C-19.35085937 9.12886719 -20.45171875 9.13273437 -21.5859375 9.13671875 C-22.63523437 9.13542969 -23.68453125 9.13414063 -24.765625 9.1328125 C-25.72243164 9.13168457 -26.67923828 9.13055664 -27.66503906 9.12939453 C-30 9 -30 9 -32 8 C-32 6.35 -32 4.7 -32 3 C-32.99 3.495 -32.99 3.495 -34 4 C-34 2.68 -34 1.36 -34 0 C-6.14854682 -4.09903122 -6.14854682 -4.09903122 0 0 Z " fill="#E4AF35" transform="translate(102,56)"/>
<path d="M0 0 C4.05910468 1.35303489 4.9213069 3.34436731 7 7 C7 8.32 7 9.64 7 11 C7.45377501 14.72095505 8.0829234 16.59024107 11 19 C9.84826645 21.46800047 8.95216435 23.04783565 7 25 C11.95 25.33 16.9 25.66 22 26 C22 25.34 22 24.68 22 24 C24.24973447 23.945862 26.49984383 23.90714509 28.75 23.875 C30.00296875 23.85179688 31.2559375 23.82859375 32.546875 23.8046875 C35.72820492 23.98462698 37.36521896 24.31001418 40 26 C25.3363293 27.15820248 10.70193082 27.10562899 -4 27 C-2.68 26.34 -1.36 25.68 0 25 C-0.33 23.35 -0.66 21.7 -1 20 C-2.65 20 -4.3 20 -6 20 C-5.505 18.515 -5.505 18.515 -5 17 C-3.68 17.33 -2.36 17.66 -1 18 C-1 16.02 -1 14.04 -1 12 C-1.99 11.67 -2.98 11.34 -4 11 C-3.5247412 9.35303396 -3.04468109 7.70745272 -2.5625 6.0625 C-2.29566406 5.14597656 -2.02882813 4.22945312 -1.75390625 3.28515625 C-1 1 -1 1 0 0 Z " fill="#E7B73F" transform="translate(74,26)"/>
<path d="M0 0 C6.9309521 3.65332428 13.56852529 7.52178798 20 12 C19.67 14.64 19.34 17.28 19 20 C18.67 20 18.34 20 18 20 C18 18.02 18 16.04 18 14 C17.401875 14.474375 16.80375 14.94875 16.1875 15.4375 C14 17 14 17 11 18 C8.41277662 25.11241736 8.65401294 32.41498411 8.5859375 39.90625 C8.56719558 41.2400427 8.54761999 42.57382391 8.5272522 43.90759277 C8.47624378 47.39267157 8.43645226 50.87778868 8.39910889 54.36303711 C8.35887126 57.92961865 8.3078698 61.49604516 8.2578125 65.0625 C8.16142464 72.04155297 8.07690287 79.02070583 8 86 C7.67 86 7.34 86 7 86 C6.95357826 77.88945912 6.91808095 69.77897412 6.89637566 61.66833305 C6.88595613 57.9018877 6.87183054 54.13553352 6.84912109 50.36914062 C6.82732717 46.73166131 6.81541761 43.09426948 6.81024551 39.45672989 C6.80656148 38.07171375 6.79936753 36.68670219 6.78853989 35.30172348 C6.7739387 33.35598199 6.77318234 31.41015173 6.77294922 29.46435547 C6.768508 28.35849091 6.76406677 27.25262634 6.75949097 26.11325073 C7.01568197 22.797006 7.82291313 20.09967787 9 17 C8.2575 16.7525 7.515 16.505 6.75 16.25 C3.47939792 14.76336269 1.99421815 14.0282572 0 11 C-0.33546893 7.30984179 -0.22931633 3.69454091 0 0 Z " fill="#BF8A37" transform="translate(132,50)"/>
<path d="M0 0 C0.66 0 1.32 0 2 0 C2.14285714 8.57142857 2.14285714 8.57142857 1 12 C0.34 12 -0.32 12 -1 12 C-1 32.79 -1 53.58 -1 75 C-2.32 74.34 -3.64 73.68 -5 73 C-4.93854546 64.94101511 -4.86126694 56.88239765 -4.76428509 48.82376957 C-4.71972942 45.08102166 -4.68044175 41.3383789 -4.65356445 37.59545898 C-4.62738233 33.97720575 -4.58687756 30.3593604 -4.53681374 26.74136162 C-4.52024499 25.36726427 -4.50866892 23.99309653 -4.50238609 22.61891365 C-4.41078608 4.41078608 -4.41078608 4.41078608 0 0 Z " fill="#A8660D" transform="translate(148,64)"/>
<path d="M0 0 C3.3 0 6.6 0 10 0 C13 3 13 3 13.3125 5.4375 C13 8 13 8 11.875 9.91015625 C10.76185964 11.95695064 10.76185964 11.95695064 11.57421875 14 C11.94160156 14.66 12.30898437 15.32 12.6875 16 C13.25791016 17.03640625 13.25791016 17.03640625 13.83984375 18.09375 C15.10518131 20.17282317 16.44106168 22.12927402 18 24 C14.61594998 23.71799583 13.27874404 23.28694239 10.875 20.8125 C8.9772514 17.9658771 7.44185388 15.09998585 6 12 C6 14.64 6 17.28 6 20 C4.02 20 2.04 20 0 20 C0 13.4 0 6.8 0 0 Z " fill="#EAC355" transform="translate(89,88)"/>
<path d="M0 0 C0.68672806 2.13648729 1.11808095 3.5504029 0.54017639 5.75079346 C-0.14804568 8.61643811 -0.1640563 11.28973569 -0.20532227 14.23730469 C-0.22526749 15.49830994 -0.24521271 16.75931519 -0.26576233 18.05853271 C-0.28274401 19.42964557 -0.29962291 20.8007597 -0.31640625 22.171875 C-0.33698835 23.57863967 -0.35798515 24.98539833 -0.37937927 26.39215088 C-0.43447035 30.08773927 -0.48393655 33.78338226 -0.53222656 37.47906494 C-0.58253649 41.25301959 -0.63817293 45.02689532 -0.69335938 48.80078125 C-0.80078228 56.20045392 -0.90226219 63.6001924 -1 71 C-1.33 71 -1.66 71 -2 71 C-2.33 62.42 -2.66 53.84 -3 45 C-3.33 48.96 -3.66 52.92 -4 57 C-4.33 57 -4.66 57 -5 57 C-5.07645954 50.47134965 -5.12877088 43.94281604 -5.16479492 37.41381836 C-5.17982277 35.1956755 -5.20025077 32.97756207 -5.22631836 30.75952148 C-5.26296624 27.55965892 -5.27978688 24.36019139 -5.29296875 21.16015625 C-5.30845261 20.17854019 -5.32393646 19.19692413 -5.33988953 18.18556213 C-5.34135541 12.10257625 -4.77027467 6.51266219 -2 1 C-1.34 0.67 -0.68 0.34 0 0 Z " fill="#DCA62B" transform="translate(145,66)"/>
<path d="M0 0 C0.89861252 -0.0033284 1.79722504 -0.0066568 2.72306824 -0.01008606 C4.61656181 -0.01512727 6.51006418 -0.01749526 8.40356445 -0.01733398 C11.273752 -0.01951664 14.14355235 -0.03769188 17.01367188 -0.05664062 C18.86327995 -0.05957605 20.71288983 -0.06155985 22.5625 -0.0625 C23.83018974 -0.07327827 23.83018974 -0.07327827 25.12348938 -0.08427429 C31.1081955 -0.0617517 36.65681773 0.80804241 42.48046875 2.16796875 C42.48046875 2.49796875 42.48046875 2.82796875 42.48046875 3.16796875 C33.69666921 4.22313033 24.9801436 4.32220122 16.14868164 4.29833984 C13.81454859 4.29301795 11.48061132 4.29829465 9.14648438 4.3046875 C-0.77838776 4.30861301 -10.62298903 3.91069583 -20.51953125 3.16796875 C-14.36785649 -0.52303611 -6.943514 0.00907767 0 0 Z " fill="#6A3802" transform="translate(83.51953125,65.83203125)"/>
<path d="M0 0 C6.28260706 -0.23268915 11.88019467 0.59545452 18 2 C17.01 4.31 16.02 6.62 15 9 C15.99 9.33 16.98 9.66 18 10 C15.65147472 11.17426264 14.26225935 11.11508173 11.6484375 11.09765625 C10.79765625 11.09443359 9.946875 11.09121094 9.0703125 11.08789062 C8.18085937 11.07951172 7.29140625 11.07113281 6.375 11.0625 C5.02921875 11.05573242 5.02921875 11.05573242 3.65625 11.04882812 C1.43743352 11.03702591 -0.78125018 11.02056155 -3 11 C-3 10.67 -3 10.34 -3 10 C-1.35 9.67 0.3 9.34 2 9 C-0.31 8.67 -2.62 8.34 -5 8 C-5 7.01 -5 6.02 -5 5 C-4.01 5 -3.02 5 -2 5 C-1.67 4.01 -1.34 3.02 -1 2 C-0.01 2 0.98 2 2 2 C1.34 1.34 0.68 0.68 0 0 Z " fill="#B8730F" transform="translate(99,54)"/>
<path d="M0 0 C0.66 0.33 1.32 0.66 2 1 C1.67 1.66 1.34 2.32 1 3 C1.66 3.33 2.32 3.66 3 4 C6.02156257 13.06468771 5.13733293 23.63329363 5.09765625 33.078125 C5.0962413 34.37071228 5.09482635 35.66329956 5.09336853 36.99505615 C5.08959801 40.3881025 5.07981625 43.78110426 5.06866455 47.1741333 C5.05833111 50.65384315 5.05384567 54.13356039 5.04882812 57.61328125 C5.03818754 64.40887219 5.02117911 71.20443394 5 78 C3.515 78.495 3.515 78.495 2 79 C1.99413376 78.19313248 1.98826752 77.38626495 1.98222351 76.5549469 C1.9241188 68.91986756 1.85194168 61.28510796 1.76428509 53.65031528 C1.71971636 49.72596384 1.68043135 45.80171299 1.65356445 41.87719727 C1.62739565 38.08388972 1.58689969 34.29097209 1.53681374 30.49790764 C1.52023615 29.05682189 1.50866551 27.61566884 1.50238609 26.17450142 C1.46817743 19.03968196 1.40477777 12.41475598 -1.36174011 5.72325134 C-2 4 -2 4 -2 1 C-1.34 0.67 -0.68 0.34 0 0 Z " fill="#D0AA69" transform="translate(41,61)"/>
<path d="M0 0 C2.97 0 5.94 0 9 0 C9.81462495 4.65499974 10.43393721 9.30976546 11 14 C7.11173787 17.73273164 6.1910757 17 0 17 C0 11.39 0 5.78 0 0 Z " fill="#EFD37F" transform="translate(104,121)"/>
<path d="M0 0 C0.99 0.495 0.99 0.495 2 1 C2.4140625 3.50390625 2.4140625 3.50390625 2.625 6.5625 C2.73714844 8.08037109 2.73714844 8.08037109 2.8515625 9.62890625 C2.90054688 10.41136719 2.94953125 11.19382812 3 12 C1.68 11.67 0.36 11.34 -1 11 C-1 10.01 -1 9.02 -1 8 C-2.08539063 7.93941406 -3.17078125 7.87882812 -4.2890625 7.81640625 C-5.73438486 7.73193936 -7.17969682 7.64729449 -8.625 7.5625 C-9.33785156 7.52318359 -10.05070312 7.48386719 -10.78515625 7.44335938 C-13.8586764 7.26007606 -16.8115467 7.03468783 -19.84375 6.4765625 C-24.51804015 5.77079097 -29.15411731 5.80940586 -33.875 5.8125 C-34.89062012 5.81185547 -35.90624023 5.81121094 -36.95263672 5.81054688 C-44.35717621 5.86195917 -51.50570818 6.44907186 -58.8203125 7.5625 C-61.60394386 7.94550579 -64.1970425 8.08461758 -67 8 C-67 8.99 -67 9.98 -67 11 C-67.99 11.33 -68.98 11.66 -70 12 C-70 10.35 -70 8.7 -70 7 C-69.01 7 -68.02 7 -67 7 C-67 6.34 -67 5.68 -67 5 C-57.14407194 4.13282846 -47.38398394 3.84241174 -37.49682617 3.86962891 C-35.2002902 3.87497025 -32.90395183 3.86965573 -30.60742188 3.86328125 C-20.37257206 3.85918551 -10.20932292 4.28932169 0 5 C0 3.35 0 1.7 0 0 Z " fill="#9D600F" transform="translate(130,49)"/>
<path d="M0 0 C1.65 0 3.3 0 5 0 C4.67 2.64 4.34 5.28 4 8 C5.98 8 7.96 8 10 8 C10 5.36 10 2.72 10 0 C11.32 0 12.64 0 14 0 C14.33 6.6 14.66 13.2 15 20 C13.35 20 11.7 20 10 20 C10 16.7 10 13.4 10 10 C8.02 10 6.04 10 4 10 C4 12.97 4 15.94 4 19 C2.68 19.33 1.36 19.66 0 20 C0 13.4 0 6.8 0 0 Z " fill="#DAA732" transform="translate(74,119)"/>
<path d="M0 0 C0.5 2.6875 0.5 2.6875 0 6 C-2.45240837 8.08132026 -5.1353789 9.55490096 -8 11 C-7.83701416 12.19616943 -7.67402832 13.39233887 -7.50610352 14.62475586 C-6.79320848 21.07853468 -6.87590243 27.51830155 -6.90234375 34.00390625 C-6.9037587 35.32293442 -6.90517365 36.64196259 -6.90663147 38.0009613 C-6.91041757 41.47789466 -6.92021364 44.95478507 -6.93133545 48.43170166 C-6.9416344 51.99157124 -6.94614712 55.55144788 -6.95117188 59.11132812 C-6.96184012 66.07423619 -6.97886855 73.03711603 -7 80 C-7.33 80 -7.66 80 -8 80 C-8.00808685 79.27638779 -8.01617371 78.55277557 -8.02450562 77.80723572 C-8.10265592 70.96626672 -8.19000736 64.12546941 -8.28752708 57.28475094 C-8.33733522 53.76840549 -8.38366562 50.25208783 -8.421875 46.7355957 C-8.46602393 42.68682493 -8.52561023 38.63840602 -8.5859375 34.58984375 C-8.59748871 33.33541977 -8.60903992 32.08099579 -8.62094116 30.78855896 C-8.72110619 24.83655818 -8.93831201 19.60996152 -11 14 C-11.99 14 -12.98 14 -14 14 C-14.3359375 11.765625 -14.3359375 11.765625 -14 9 C-11.6640625 6.796875 -11.6640625 6.796875 -8.625 4.75 C-7.12839844 3.72132812 -7.12839844 3.72132812 -5.6015625 2.671875 C-1.44392523 0 -1.44392523 0 0 0 Z " fill="#AB7836" transform="translate(60,56)"/>
<path d="M0 0 C-0.75529526 3.86252257 -2.39484772 7.20180367 -4.0625 10.75 C-4.88427734 12.50570312 -4.88427734 12.50570312 -5.72265625 14.296875 C-6.14417969 15.18890625 -6.56570312 16.0809375 -7 17 C-8.65 16.67 -10.3 16.34 -12 16 C-12.268125 16.598125 -12.53625 17.19625 -12.8125 17.8125 C-14.03854802 20.07100952 -14.93534581 21.47062652 -17 23 C-19.6875 23.1875 -19.6875 23.1875 -22 23 C-22 22.01 -22 21.02 -22 20 C-21.236875 19.9175 -20.47375 19.835 -19.6875 19.75 C-16.98306864 19.19938002 -16.98306864 19.19938002 -15.25 17.5 C-13.90468788 14.80937577 -13.95234895 13.56509221 -13.9375 10.625 C-13.70127927 7.30142932 -13.36753309 6.32398339 -10.82421875 4.08203125 C-4.12425772 0 -4.12425772 0 0 0 Z " fill="#BA7B1E" transform="translate(141,23)"/>
<path d="M0 0 C2.31 0 4.62 0 7 0 C6.67 6.6 6.34 13.2 6 20 C7.32 19.34 8.64 18.68 10 18 C10.99 18 11.98 18 13 18 C13 19.65 13 21.3 13 23 C8.71 23 4.42 23 0 23 C0 15.41 0 7.82 0 0 Z " fill="#E3B74E" transform="translate(58,86)"/>
<path d="M0 0 C0.66 0 1.32 0 2 0 C2.7425 0.969375 3.485 1.93875 4.25 2.9375 C6.34654302 5.59729339 6.83382309 5.95610421 10.3125 6.875 C11.199375 6.91625 12.08625 6.9575 13 7 C13 8.32 13 9.64 13 11 C13.66 11.33 14.32 11.66 15 12 C14.67 12.33 14.34 12.66 14 13 C14.99 13.66 15.98 14.32 17 15 C12.38 15 7.76 15 3 15 C3 15.66 3 16.32 3 17 C2.01 17 1.02 17 0 17 C0 11.39 0 5.78 0 0 Z " fill="#C37F15" transform="translate(60,39)"/>
<path d="M0 0 C0.33 0 0.66 0 1 0 C1.86864698 3.77035832 2.14929928 7.30165047 2.20532227 11.16723633 C2.22526749 12.38812454 2.24521271 13.60901276 2.26576233 14.86689758 C2.28247482 16.17539169 2.29918732 17.4838858 2.31640625 18.83203125 C2.3369958 20.19252628 2.35799278 21.55301519 2.37937927 22.91349792 C2.43439347 26.48248323 2.48389317 30.05152427 2.53222656 33.62060547 C2.58259306 37.26730266 2.6381998 40.91391959 2.69335938 44.56054688 C2.80068804 51.70696151 2.90218843 58.85344825 3 66 C1.515 66.495 1.515 66.495 0 67 C0 44.89 0 22.78 0 0 Z " fill="#EBB02F" transform="translate(45,71)"/>
<path d="M0 0 C4.05910468 1.35303489 4.9213069 3.34436731 7 7 C7 8.32 7 9.64 7 11 C7.42996511 13.57979066 7.82942256 15.65884511 9 18 C7.68 19.32 6.36 20.64 5 22 C4.01 19.36 3.02 16.72 2 14 C1.01 15.485 1.01 15.485 0 17 C-0.103125 16.38125 -0.20625 15.7625 -0.3125 15.125 C-0.87525373 12.63473516 -0.87525373 12.63473516 -4 11 C-3.5247412 9.35303396 -3.04468109 7.70745272 -2.5625 6.0625 C-2.29566406 5.14597656 -2.02882813 4.22945312 -1.75390625 3.28515625 C-1 1 -1 1 0 0 Z " fill="#D1972C" transform="translate(74,26)"/>
<path d="M0 0 C7.875 0 7.875 0 12 3 C11.67 3.66 11.34 4.32 11 5 C8.69 4.01 6.38 3.02 4 2 C4 6.95 4 11.9 4 17 C8.12438075 16.35493804 8.12438075 16.35493804 12 15 C13.61147442 12.00571856 13.61147442 12.00571856 14 9 C14.75 10.6875 14.75 10.6875 15 13 C12.86618551 16.2769294 11.74981988 17.75006004 8 19 C5.36 19 2.72 19 0 19 C0 12.73 0 6.46 0 0 Z " fill="#DBA525" transform="translate(105,89)"/>
<path d="M0 0 C1.65 0 3.3 0 5 0 C5.33 0.66 5.66 1.32 6 2 C6.66 1.67 7.32 1.34 8 1 C7.67 2.98 7.34 4.96 7 7 C12.28 7.33 17.56 7.66 23 8 C23 8.33 23 8.66 23 9 C22.17592651 9.08302368 22.17592651 9.08302368 21.33520508 9.16772461 C18.82737577 9.42181253 16.31994239 9.67962299 13.8125 9.9375 C12.51602539 10.06801758 12.51602539 10.06801758 11.19335938 10.20117188 C7.0796975 10.6267231 3.03788809 11.07203814 -1 12 C-1.33 9.03 -1.66 6.06 -2 3 C-1.34 3 -0.68 3 0 3 C0 2.01 0 1.02 0 0 Z " fill="#BD8328" transform="translate(63,57)"/>
<path d="M0 0 C3 0.125 3 0.125 4 1.125 C4.12487758 2.93427281 4.17570846 4.74896107 4.1875 6.5625 C4.20167969 7.55121094 4.21585938 8.53992188 4.23046875 9.55859375 C4 12.125 4 12.125 2 14.125 C-2.55555556 13.56944444 -2.55555556 13.56944444 -4 12.125 C-4.09851171 10.29384117 -4.12972629 8.45880067 -4.125 6.625 C-4.12757812 5.6246875 -4.13015625 4.624375 -4.1328125 3.59375 C-3.93755824 -0.03568207 -3.6938095 0.15390873 0 0 Z " fill="#FDFBF7" transform="translate(80,90.875)"/>
<path d="M0 0 C0.99 0.33 1.98 0.66 3 1 C3.33 3.64 3.66 6.28 4 9 C3.06607422 9.12375 3.06607422 9.12375 2.11328125 9.25 C-0.1434054 9.79018186 -0.1434054 9.79018186 -1.01953125 11.8125 C-1.28121094 12.534375 -1.54289062 13.25625 -1.8125 14 C-2.796875 16.1796875 -2.796875 16.1796875 -4 18 C-7.5625 19.125 -7.5625 19.125 -11 19 C-11.99 18.34 -12.98 17.68 -14 17 C-13.67 15.68 -13.34 14.36 -13 13 C-12.01 14.485 -12.01 14.485 -11 16 C-8.41619823 16.25030977 -8.41619823 16.25030977 -6 16 C-6.12375 14.1746875 -6.12375 14.1746875 -6.25 12.3125 C-6.26522718 8.0032081 -5.03162996 6.12079554 -2 3 C-1.34 2.01 -0.68 1.02 0 0 Z " fill="#BB8639" transform="translate(116,26)"/>
<path d="M0 0 C0.33 0 0.66 0 1 0 C1.23376694 4.49911447 1.37490714 8.99665691 1.5 13.5 C1.56703125 14.7684375 1.6340625 16.036875 1.703125 17.34375 C1.8961453 26.6087242 1.8961453 26.6087242 -0.7109375 30.65625 C-3.65203892 33.67276428 -5.98174493 35.66058164 -10 37 C-8.67652697 34.01254874 -7.27213512 32.24539841 -4.875 30.0625 C-1.11922779 25.80656442 -1.58621924 21.89357841 -1.8515625 16.44140625 C-2.00044716 12.98963306 -1.84959635 9.69105477 -1.5625 6.25 C-1.48128906 5.26515625 -1.40007812 4.2803125 -1.31640625 3.265625 C-1 1 -1 1 0 0 Z " fill="#EDB836" transform="translate(142,110)"/>
<path d="M0 0 C0 0.99 0 1.98 0 3 C1.35276602 8.47255346 3.0914264 12.8218696 7 17 C3.61594998 16.71799583 2.27874404 16.28694239 -0.125 13.8125 C-2.0227486 10.9658771 -3.55814612 8.09998585 -5 5 C-5 7.64 -5 10.28 -5 13 C-6.32 13 -7.64 13 -9 13 C-9 9.37 -9 5.74 -9 2 C-7.6078125 2.061875 -7.6078125 2.061875 -6.1875 2.125 C-2.84190281 2.27136339 -2.84190281 2.27136339 0 0 Z " fill="#DCAF4C" transform="translate(100,95)"/>
<path d="M0 0 C1.8125 2.0625 1.8125 2.0625 3 4 C3.66 4 4.32 4 5 4 C5.32185816 8.02322694 5.15515943 10.63571265 3.5625 14.375 C0.43104727 17.58282962 -1.49581754 18.01604115 -5.87109375 18.25390625 C-8 18 -8 18 -10.5625 16.0625 C-11.036875 15.381875 -11.51125 14.70125 -12 14 C-11.67 13.01 -11.34 12.02 -11 11 C-10.649375 11.66 -10.29875 12.32 -9.9375 13 C-8.04044691 15.3956857 -8.04044691 15.3956857 -4.375 15.3125 C-1.16475062 15.37771762 -1.16475062 15.37771762 0 14 C0.09854655 12.35659133 0.12972411 10.7088539 0.125 9.0625 C0.12757812 8.16660156 0.13015625 7.27070312 0.1328125 6.34765625 C0.15421413 3.97844445 0.15421413 3.97844445 -1 2 C-2.98 2 -4.96 2 -7 2 C-7.66 4.64 -8.32 7.28 -9 10 C-9.33 10 -9.66 10 -10 10 C-10.35915493 2.6971831 -10.35915493 2.6971831 -8.9375 -0.0625 C-5.71959765 -1.61954952 -3.36447939 -0.90119984 0 0 Z " fill="#DEAF3B" transform="translate(84,90)"/>
<path d="M0 0 C2.0625 0.4375 2.0625 0.4375 4 1 C3.67 2.32 3.34 3.64 3 5 C5.91765 6.9451 7.62537285 7.45276317 11 8 C11 8.33 11 8.66 11 9 C5.27959989 9.8320582 -0.22240116 10.12036664 -6 10 C-6 9.67 -6 9.34 -6 9 C-4.35 8.67 -2.7 8.34 -1 8 C-3.31 7.67 -5.62 7.34 -8 7 C-8 6.01 -8 5.02 -8 4 C-7.01 4 -6.02 4 -5 4 C-4.67 3.01 -4.34 2.02 -4 1 C-3.01 1 -2.02 1 -1 1 C-0.67 0.67 -0.34 0.34 0 0 Z " fill="#D1901C" transform="translate(102,55)"/>
<path d="M0 0 C2.79173055 -0.02690104 5.58320348 -0.04679053 8.375 -0.0625 C9.56609375 -0.07506836 9.56609375 -0.07506836 10.78125 -0.08789062 C16.7734375 -0.11328125 16.7734375 -0.11328125 19 1 C19 1.66 19 2.32 19 3 C18.01 3 17.02 3 16 3 C16 3.99 16 4.98 16 6 C14.35 6 12.7 6 11 6 C10.67 5.01 10.34 4.02 10 3 C9.01 3.495 9.01 3.495 8 4 C8 4.66 8 5.32 8 6 C6.35 6 4.7 6 3 6 C3 4.68 3 3.36 3 2 C2.34 2 1.68 2 1 2 C1 2.66 1 3.32 1 4 C0.34 4 -0.32 4 -1 4 C-0.67 2.68 -0.34 1.36 0 0 Z " fill="#F5CA46" transform="translate(77,55)"/>
<path d="M0 0 C0.66 0.33 1.32 0.66 2 1 C1.67 6.28 1.34 11.56 1 17 C-1.31 17 -3.62 17 -6 17 C-6.66 16.34 -7.32 15.68 -8 15 C-5.36 10.05 -2.72 5.1 0 0 Z " fill="#F2DE81" transform="translate(95,8)"/>
<path d="M0 0 C6.625 -0.25 6.625 -0.25 10 2 C10.3125 4.5 10.3125 4.5 10 7 C8 9 8 9 6.0546875 9.1953125 C4.03645833 9.13020833 2.01822917 9.06510417 0 9 C0 6.03 0 3.06 0 0 Z " fill="#D29E2A" transform="translate(105,128)"/>
<path d="M0 0 C0 4.95 0 9.9 0 15 C1.65 14.67 3.3 14.34 5 14 C5.33 9.71 5.66 5.42 6 1 C6.66 1 7.32 1 8 1 C8.0810206 3.10353495 8.13919907 5.20795952 8.1875 7.3125 C8.22230469 8.48425781 8.25710937 9.65601563 8.29296875 10.86328125 C8 14 8 14 6.64453125 15.89453125 C4.28900824 17.47793508 2.77585184 17.41637778 0 17 C-1.64453125 15.89453125 -1.64453125 15.89453125 -3 14 C-3.29296875 10.86328125 -3.29296875 10.86328125 -3.1875 7.3125 C-3.16042969 6.13300781 -3.13335937 4.95351562 -3.10546875 3.73828125 C-3.07066406 2.83464844 -3.03585938 1.93101563 -3 1 C-1 0 -1 0 0 0 Z " fill="#DBAA35" transform="translate(94,121)"/>
<path d="M0 0 C0.66 0 1.32 0 2 0 C2.25394531 0.67546875 2.50789063 1.3509375 2.76953125 2.046875 C3.11371094 2.93890625 3.45789063 3.8309375 3.8125 4.75 C4.14894531 5.63171875 4.48539062 6.5134375 4.83203125 7.421875 C5.96846822 9.93039808 7.26542927 11.87279005 9 14 C8.34 15.32 7.68 16.64 7 18 C4.69 17.34 2.38 16.68 0 16 C0 10.72 0 5.44 0 0 Z " fill="#C88D30" transform="translate(96,9)"/>
<path d="M0 0 C0.66 0.33 1.32 0.66 2 1 C-1.36084455 7.40160866 -6.87237749 11.31407135 -13 15 C-13.99 15 -14.98 15 -16 15 C-15.61501271 12.56706256 -15.29096937 11.28577433 -13.50952148 9.53613281 C-12.88634033 9.09624023 -12.26315918 8.65634766 -11.62109375 8.203125 C-10.94755859 7.71972656 -10.27402344 7.23632812 -9.58007812 6.73828125 C-8.87302734 6.24714844 -8.16597656 5.75601563 -7.4375 5.25 C-6.72658203 4.74339844 -6.01566406 4.23679688 -5.28320312 3.71484375 C-3.52898568 2.46687697 -1.76536641 1.23214503 0 0 Z " fill="#F4C541" transform="translate(112,159)"/>
<path d="M0 0 C1.65 0 3.3 0 5 0 C6.57922406 1.57922406 6.207659 3.19443874 6.25 5.375 C6.27578125 6.16648437 6.3015625 6.95796875 6.328125 7.7734375 C6 10 6 10 4.671875 11.7890625 C3 13 3 13 0 13 C0 8.71 0 4.42 0 0 Z " fill="#FDFCF8" transform="translate(110,92)"/>
<path d="M0 0 C0.33 0.66 0.66 1.32 1 2 C-3.00091404 2.74984705 -6.76749517 3.1195296 -10.8359375 3.09765625 C-11.89941406 3.09443359 -12.96289062 3.09121094 -14.05859375 3.08789062 C-15.15300781 3.07951172 -16.24742188 3.07113281 -17.375 3.0625 C-18.49261719 3.05798828 -19.61023438 3.05347656 -20.76171875 3.04882812 C-23.50786804 3.03709244 -26.25390586 3.02067363 -29 3 C-23.26530861 -2.73469139 -7.76355587 -0.07537433 0 0 Z " fill="#ECC750" transform="translate(101,62)"/>
<path d="M0 0 C0.66 0.33 1.32 0.66 2 1 C2.4140625 3.50390625 2.4140625 3.50390625 2.625 6.5625 C2.69976562 7.57441406 2.77453125 8.58632813 2.8515625 9.62890625 C2.90054688 10.41136719 2.94953125 11.19382812 3 12 C1.68 11.67 0.36 11.34 -1 11 C-1 10.01 -1 9.02 -1 8 C-2.12019531 7.95101562 -3.24039063 7.90203125 -4.39453125 7.8515625 C-5.86721203 7.77652144 -7.33986707 7.70097418 -8.8125 7.625 C-9.55048828 7.5940625 -10.28847656 7.563125 -11.04882812 7.53125 C-14.81893115 7.32653852 -16.79650741 7.13566173 -20 5 C-13.4 5 -6.8 5 0 5 C0 3.35 0 1.7 0 0 Z " fill="#864B06" transform="translate(130,49)"/>
<path d="M0 0 C1.2739902 0.76560456 2.54406512 1.53772626 3.8125 2.3125 C4.52019531 2.74175781 5.22789063 3.17101562 5.95703125 3.61328125 C7.91195322 4.94023593 9.47874836 6.19381551 11 8 C10.875 10.0625 10.875 10.0625 10 12 C6.91111478 14.05925681 6.29064073 14.2390374 2.8125 14.125 C0.9253125 14.063125 0.9253125 14.063125 -1 14 C-1 12.02 -1 10.04 -1 8 C-0.34 8 0.32 8 1 8 C1.33 8.66 1.66 9.32 2 10 C4.52733235 10.65555119 4.52733235 10.65555119 7 11 C6.95231597 9.12119128 6.95231597 9.12119128 6 7 C4.00628175 5.65729179 2.0065438 4.32346506 0 3 C0 2.01 0 1.02 0 0 Z " fill="#CA9830" transform="translate(122,94)"/>
<path d="M0 0 C-0.33 0.99 -0.66 1.98 -1 3 C-0.34 3 0.32 3 1 3 C1.33 2.34 1.66 1.68 2 1 C2 2.98 2 4.96 2 7 C-2.455 7.495 -2.455 7.495 -7 8 C-7 6.35 -7 4.7 -7 3 C-7.99 3.495 -7.99 3.495 -9 4 C-9 2.68 -9 1.36 -9 0 C-5.62182575 -0.84454356 -3.32534757 -1.10844919 0 0 Z " fill="#DA9B22" transform="translate(77,56)"/>
<path d="M0 0 C1.134375 0.020625 2.26875 0.04125 3.4375 0.0625 C3.7675 1.7125 4.0975 3.3625 4.4375 5.0625 C3.7775 5.0625 3.1175 5.0625 2.4375 5.0625 C2.1075 4.4025 1.7775 3.7425 1.4375 3.0625 C0.4475 3.0625 -0.5425 3.0625 -1.5625 3.0625 C-1.5625 4.0525 -1.5625 5.0425 -1.5625 6.0625 C-0.0182191 7.41624512 -0.0182191 7.41624512 1.9375 8.5625 C3.90625 9.78125 3.90625 9.78125 5.4375 11.0625 C5.4375 12.0525 5.4375 13.0425 5.4375 14.0625 C4.4475 13.7325 3.4575 13.4025 2.4375 13.0625 C2.4375 12.4025 2.4375 11.7425 2.4375 11.0625 C1.674375 10.794375 0.91125 10.52625 0.125 10.25 C-3.98008242 8.43612637 -3.98008242 8.43612637 -5.5625 6.0625 C-4.99346234 0.0876046 -4.99346234 0.0876046 0 0 Z " fill="#E9C450" transform="translate(127.5625,87.9375)"/>
<path d="M0 0 C0.5 2.6875 0.5 2.6875 0 6 C-2.45240837 8.08132026 -5.1353789 9.55490096 -8 11 C-8.66 10.34 -9.32 9.68 -10 9 C-10 8.67 -10 8.34 -10 8 C-11.32 8.33 -12.64 8.66 -14 9 C-10.73787201 5.33010602 -5.2007339 0 0 0 Z " fill="#DEAB3E" transform="translate(60,50)"/>
<path d="M0 0 C2.97 0.33 5.94 0.66 9 1 C9 8.92 9 16.84 9 25 C8.67 25 8.34 25 8 25 C7.67 19.72 7.34 14.44 7 9 C6.01 9.99 5.02 10.98 4 12 C3.87882812 11.38511719 3.75765625 10.77023438 3.6328125 10.13671875 C3.46523437 9.32847656 3.29765625 8.52023438 3.125 7.6875 C2.96257812 6.88699219 2.80015625 6.08648437 2.6328125 5.26171875 C2.05521001 2.74698882 2.05521001 2.74698882 0 0 Z " fill="#E4B746" transform="translate(87,24)"/>
<path d="M0 0 C1.60332791 -0.08121924 3.20784026 -0.13929134 4.8125 -0.1875 C6.15248047 -0.23970703 6.15248047 -0.23970703 7.51953125 -0.29296875 C10 0 10 0 11.8125 1.34375 C13.43567041 3.60764557 13.2202914 5.28307271 13 8 C10.36 8.33 7.72 8.66 5 9 C5 7.02 5 5.04 5 3 C6.32 2.67 7.64 2.34 9 2 C6.03 1.67 3.06 1.34 0 1 C0 0.67 0 0.34 0 0 Z " fill="#F4D663" transform="translate(89,88)"/>
<path d="M0 0 C1.67427615 0.92384166 3.33928003 1.86450569 5 2.8125 C6.3921875 3.59560547 6.3921875 3.59560547 7.8125 4.39453125 C8.534375 4.92433594 9.25625 5.45414063 10 6 C10 9.10551666 9.4606285 10.35261084 8 13 C8 12.01 8 11.02 8 10 C7.2575 9.7525 6.515 9.505 5.75 9.25 C2.72509683 7.87504401 1.01719985 6.63787673 -1 4 C-0.6015625 1.8671875 -0.6015625 1.8671875 0 0 Z " fill="#A56D23" transform="translate(133,57)"/>
<path d="M0 0 C7.875 0 7.875 0 12 3 C11.67 3.66 11.34 4.32 11 5 C8.69 4.01 6.38 3.02 4 2 C4 3.65 4 5.3 4 7 C3.01 7 2.02 7 1 7 C1 10.96 1 14.92 1 19 C0.67 19 0.34 19 0 19 C0 12.73 0 6.46 0 0 Z " fill="#E4BA4D" transform="translate(105,89)"/>
<path d="M0 0 C1.98 0.66 3.96 1.32 6 2 C6 1.34 6 0.68 6 0 C8.31 0.66 10.62 1.32 13 2 C12.67 4.64 12.34 7.28 12 10 C11.67 10 11.34 10 11 10 C11 8.02 11 6.04 11 4 C10.13375 4.7115625 10.13375 4.7115625 9.25 5.4375 C7.07417916 6.9484867 5.57397552 7.54036151 3 8 C3.2475 7.4225 3.495 6.845 3.75 6.25 C3.87375 5.13625 3.87375 5.13625 4 4 C2.14567913 1.72855926 2.14567913 1.72855926 0 0 Z " fill="#CC9431" transform="translate(139,60)"/>
<path d="M0 0 C1.12192923 3.6186168 0.5691888 5.79632898 -0.453125 9.4296875 C-1.60854856 14.86017822 -1.70470343 20.46707487 -2 26 C-2.33 26 -2.66 26 -3 26 C-4.47985138 18.04579884 -5.80146955 8.38952327 -2 1 C-1.34 0.67 -0.68 0.34 0 0 Z " fill="#F5CA41" transform="translate(145,66)"/>
<path d="M0 0 C1.65 0 3.3 0 5 0 C5 1.32 5 2.64 5 4 C5.66 4.33 6.32 4.66 7 5 C6.67 5.33 6.34 5.66 6 6 C6.99 6.66 7.98 7.32 9 8 C1.08 8.495 1.08 8.495 -7 9 C-6.67 8.34 -6.34 7.68 -6 7 C-3.67843403 6.59270772 -1.3431213 6.25561323 1 6 C0.67 4.02 0.34 2.04 0 0 Z " fill="#DB9C23" transform="translate(68,46)"/>
<path d="M0 0 C1.34345985 0.73170581 2.67460584 1.48605753 4 2.25 C4.7425 2.66765625 5.485 3.0853125 6.25 3.515625 C6.8275 4.00546875 7.405 4.4953125 8 5 C8 6.32 8 7.64 8 9 C6.35 9 4.7 9 3 9 C2.67 8.01 2.34 7.02 2 6 C1.34 6 0.68 6 0 6 C0 7.65 0 9.3 0 11 C-2 8 -2 8 -1.7578125 5.95703125 C-1.171875 3.97135417 -0.5859375 1.98567708 0 0 Z " fill="#FAF5E9" transform="translate(121,96)"/>
<path d="M0 0 C0.66 0.33 1.32 0.66 2 1 C1.34 1.66 0.68 2.32 0 3 C0 3.99 0 4.98 0 6 C-2.31 7.32 -4.62 8.64 -7 10 C-7.99 9.01 -8.98 8.02 -10 7 C-7.5447806 2.81168455 -4.50419967 1.55599625 0 0 Z " fill="#F2CC4C" transform="translate(51,56)"/>
<path d="M0 0 C1.65 0 3.3 0 5 0 C5.33 0.66 5.66 1.32 6 2 C6.66 1.67 7.32 1.34 8 1 C7.67 2.98 7.34 4.96 7 7 C4.69 7.33 2.38 7.66 0 8 C0 5.36 0 2.72 0 0 Z " fill="#BE7911" transform="translate(63,57)"/>
<path d="M0 0 C0.66 0.33 1.32 0.66 2 1 C1.67 1.66 1.34 2.32 1 3 C1.66 3.33 2.32 3.66 3 4 C3.96070434 6.88211302 4.10581883 8.69850044 4.0625 11.6875 C4.05347656 12.49574219 4.04445313 13.30398437 4.03515625 14.13671875 C4.02355469 14.75160156 4.01195312 15.36648437 4 16 C-0.44602302 11.55397698 -1.11647986 6.98701148 -2 1 C-1.34 0.67 -0.68 0.34 0 0 Z " fill="#D6A13F" transform="translate(41,61)"/>
<path d="M0 0 C0.99 0.33 1.98 0.66 3 1 C2.34 1 1.68 1 1 1 C1.020625 2.299375 1.04125 3.59875 1.0625 4.9375 C1.08399454 6.29165633 1.07148199 7.64756083 1 9 C0 10 0 10 -2.94140625 10.09765625 C-4.73384766 10.08025391 -4.73384766 10.08025391 -6.5625 10.0625 C-8.35880859 10.04896484 -8.35880859 10.04896484 -10.19140625 10.03515625 C-11.11824219 10.02355469 -12.04507813 10.01195313 -13 10 C-13 9.67 -13 9.34 -13 9 C-8.545 8.505 -8.545 8.505 -4 8 C-6.64 7.67 -9.28 7.34 -12 7 C-12 6.67 -12 6.34 -12 6 C-9.69 6 -7.38 6 -5 6 C-5 5.34 -5 4.68 -5 4 C-3.35 4.33 -1.7 4.66 0 5 C0 3.35 0 1.7 0 0 Z " fill="#925D22" transform="translate(128,60)"/>
<path d="M0 0 C2.64 0.66 5.28 1.32 8 2 C7.67 4.64 7.34 7.28 7 10 C6.34 10 5.68 10 5 10 C4.34 9.34 3.68 8.68 3 8 C2.34 7.67 1.68 7.34 1 7 C0.59270772 4.67843403 0.25561323 2.3431213 0 0 Z " fill="#CA8D20" transform="translate(56,28)"/>
<path d="M0 0 C1.32 0 2.64 0 4 0 C4 4.29 4 8.58 4 13 C3.67 13 3.34 13 3 13 C3 9.04 3 5.08 3 1 C2.34 1 1.68 1 1 1 C1.01160156 1.92683594 1.02320312 2.85367188 1.03515625 3.80859375 C1.04417969 5.00613281 1.05320312 6.20367187 1.0625 7.4375 C1.07410156 8.63246094 1.08570312 9.82742187 1.09765625 11.05859375 C1 14 1 14 0 15 C-1.66617115 15.04063832 -3.33388095 15.042721 -5 15 C-5 14.34 -5 13.68 -5 13 C-3.68 13 -2.36 13 -1 13 C-0.67 8.71 -0.34 4.42 0 0 Z " fill="#F6E1A6" transform="translate(99,121)"/>
<path d="M0 0 C1.65 0 3.3 0 5 0 C6.31223496 3.93670488 5.24296256 6.12488144 4 10 C3.67 9.34 3.34 8.68 3 8 C2.34 8 1.68 8 1 8 C0.67 8.66 0.34 9.32 0 10 C0 6.7 0 3.4 0 0 Z " fill="#B67214" transform="translate(96,25)"/>
<path d="M0 0 C0.33 0 0.66 0 1 0 C1.00410889 0.6705542 1.00821777 1.3411084 1.01245117 2.03198242 C1.04544643 5.08470391 1.1160962 8.1354453 1.1875 11.1875 C1.19330078 12.24259766 1.19910156 13.29769531 1.20507812 14.38476562 C1.22536775 20.91890794 1.22536775 20.91890794 4.55078125 26.23828125 C5.35902344 26.81964844 6.16726562 27.40101563 7 28 C3 28 3 28 0.76074219 26.35253906 C-1.4472601 23.40241287 -1.40420334 21.99918568 -1.171875 18.359375 C-1.11386719 17.28945312 -1.05585937 16.21953125 -0.99609375 15.1171875 C-0.91488281 14.00601563 -0.83367188 12.89484375 -0.75 11.75 C-0.68425781 10.62335938 -0.61851563 9.49671875 -0.55078125 8.3359375 C-0.38584506 5.55558461 -0.20159083 2.7778963 0 0 Z " fill="#B67511" transform="translate(50,112)"/>
<path d="M0 0 C3.3 0 6.6 0 10 0 C10 0.33 10 0.66 10 1 C7.69 1 5.38 1 3 1 C3 3.97 3 6.94 3 10 C1.68 10.33 0.36 10.66 -1 11 C-0.67 7.37 -0.34 3.74 0 0 Z " fill="#D19A27" transform="translate(75,128)"/>
<path d="M0 0 C2.9375 0.8125 2.9375 0.8125 6 2 C6.33 2.99 6.66 3.98 7 5 C6.34 5 5.68 5 5 5 C4.67 4.34 4.34 3.68 4 3 C4 5.64 4 8.28 4 11 C2.68 11 1.36 11 0 11 C0 7.37 0 3.74 0 0 Z " fill="#D6A12D" transform="translate(91,97)"/>
<path d="M0 0 C2.125 0.375 2.125 0.375 4 1 C3.690625 1.53625 3.38125 2.0725 3.0625 2.625 C1.82172561 5.3984957 1.4090325 8.00042837 1 11 C-0.32 10.34 -1.64 9.68 -3 9 C-2.25 2.25 -2.25 2.25 0 0 Z " fill="#AA6B1B" transform="translate(117,34)"/>
<path d="M0 0 C0.99 0.33 1.98 0.66 3 1 C2.67 3.97 2.34 6.94 2 10 C0.02 10.33 -1.96 10.66 -4 11 C-3.5247412 9.35303396 -3.04468109 7.70745272 -2.5625 6.0625 C-2.29566406 5.14597656 -2.02882813 4.22945312 -1.75390625 3.28515625 C-1 1 -1 1 0 0 Z " fill="#EBCF74" transform="translate(74,26)"/>
<path d="M0 0 C0.33 0 0.66 0 1 0 C1 3.3 1 6.6 1 10 C3.31 9.34 5.62 8.68 8 8 C8 8.99 8 9.98 8 11 C4.7 11 1.4 11 -2 11 C-2.25 3.375 -2.25 3.375 0 0 Z " fill="#C48C1C" transform="translate(62,97)"/>
<path d="M0 0 C0.33 0 0.66 0 1 0 C1.23117163 2.77405951 1.13936747 4.66551808 0.0625 7.25 C-2.76207086 9.64660558 -5.19730539 9.90506654 -8.8359375 10.18359375 C-11 10 -11 10 -13.5625 8.0625 C-14.036875 7.381875 -14.51125 6.70125 -15 6 C-14.67 5.01 -14.34 4.02 -14 3 C-13.649375 3.66 -13.29875 4.32 -12.9375 5 C-11.0494316 7.35759384 -11.0494316 7.35759384 -7.5 7.5 C-3.99339784 7.34807854 -3.99339784 7.34807854 -2.125 5.1875 C-0.88860105 2.92023801 -0.88860105 2.92023801 0 0 Z " fill="#C59536" transform="translate(87,98)"/>
<path d="M0 0 C3.47842253 0.05601325 4.34711316 0.15811271 7.1875 2.375 C7.661875 3.035 8.13625 3.695 8.625 4.375 C8.295 5.365 7.965 6.355 7.625 7.375 C6.903125 6.55 6.18125 5.725 5.4375 4.875 C2.90574146 2.23155456 2.90574146 2.23155456 0.0625 1.75 C-3.34594552 2.62396039 -4.35753218 4.59228577 -6.375 7.375 C-7.035 7.375 -7.695 7.375 -8.375 7.375 C-6.54778172 2.41540753 -5.52877743 0.09184016 0 0 Z " fill="#F8DF69" transform="translate(79.375,87.625)"/>
<path d="M0 0 C1.45089193 2.30435777 2.00798044 3.68876297 1.9375 6.4375 C0.65228922 9.95040948 -1.08810263 11.683718 -4 14 C-6.8125 14.3125 -6.8125 14.3125 -9 14 C-9 13.01 -9 12.02 -9 11 C-8.236875 10.9175 -7.47375 10.835 -6.6875 10.75 C-3.94448222 10.21388291 -3.94448222 10.21388291 -2.25 8.3125 C-0.75684832 5.5501694 -0.35262924 3.10313728 0 0 Z " fill="#CBA356" transform="translate(128,32)"/>
<path d="M0 0 C1.98 0 3.96 0 6 0 C6 0.66 6 1.32 6 2 C7.98 2 9.96 2 12 2 C11.67 2.66 11.34 3.32 11 4 C10.01 4 9.02 4 8 4 C8.33 8.62 8.66 13.24 9 18 C8.34 18 7.68 18 7 18 C6.93941406 17.02417969 6.87882812 16.04835937 6.81640625 15.04296875 C6.73261719 13.77066406 6.64882812 12.49835938 6.5625 11.1875 C6.48128906 9.92292969 6.40007812 8.65835938 6.31640625 7.35546875 C6.12815453 4.00818107 6.12815453 4.00818107 5 1 C3.35 1.33 1.7 1.66 0 2 C0 1.34 0 0.68 0 0 Z " fill="#F7E4A6" transform="translate(83,118)"/>
<path d="M0 0 C2.4377963 -0.05397335 4.87439685 -0.09365616 7.3125 -0.125 C8.00279297 -0.14175781 8.69308594 -0.15851562 9.40429688 -0.17578125 C13.17135396 -0.21217794 14.78431704 -0.14378864 18 2 C17.01 2.66 16.02 3.32 15 4 C14.67 3.67 14.34 3.34 14 3 C13.67 3.66 13.34 4.32 13 5 C11.68 4.67 10.36 4.34 9 4 C9.99 4 10.98 4 12 4 C12 3.34 12 2.68 12 2 C8.04 1.67 4.08 1.34 0 1 C0 0.67 0 0.34 0 0 Z " fill="#DBA028" transform="translate(84,54)"/>
<path d="M0 0 C1.31223496 3.93670488 0.24296256 6.12488144 -1 10 C-3.31 9.67 -5.62 9.34 -8 9 C-2.71428571 2.57142857 -2.71428571 2.57142857 0 0 Z " fill="#C57E12" transform="translate(113,41)"/>
<path d="M0 0 C1.32 0 2.64 0 4 0 C4 3.63 4 7.26 4 11 C3.34 10.01 2.68 9.02 2 8 C1.34 8 0.68 8 0 8 C0 5.36 0 2.72 0 0 Z " fill="#F2C948" transform="translate(84,119)"/>
<path d="M0 0 C5.21979128 -0.1799928 9.07262981 0.02905192 14 2 C14 3.32 14 4.64 14 6 C12.68 5.67 11.36 5.34 10 5 C10 4.01 10 3.02 10 2 C6.7 1.67 3.4 1.34 0 1 C0 0.67 0 0.34 0 0 Z " fill="#794204" transform="translate(119,55)"/>
<path d="M0 0 C0.66 0.66 1.32 1.32 2 2 C1.625 4.125 1.625 4.125 1 6 C-5.625 7.25 -5.625 7.25 -9 5 C-8.67 3.68 -8.34 2.36 -8 1 C-7.34 1.99 -6.68 2.98 -6 4 C-3.41619823 4.25030977 -3.41619823 4.25030977 -1 4 C-0.67 2.68 -0.34 1.36 0 0 Z " fill="#D4AA51" transform="translate(111,38)"/>
<path d="M0 0 C0.66 0.33 1.32 0.66 2 1 C-0.15317287 8.5273523 -0.15317287 8.5273523 -3.6875 10.5 C-4.450625 10.665 -5.21375 10.83 -6 11 C-5.39305845 7.84669446 -4.3583335 5.81111133 -2.4375 3.25 C-1.98246094 2.63640625 -1.52742188 2.0228125 -1.05859375 1.390625 C-0.70925781 0.93171875 -0.35992187 0.4728125 0 0 Z " fill="#E1BE66" transform="translate(116,26)"/>
<path d="M0 0 C-1 3 -1 3 -2.9609375 4.203125 C-3.75757813 4.54859375 -4.55421875 4.8940625 -5.375 5.25 C-6.56222656 5.78367187 -6.56222656 5.78367187 -7.7734375 6.328125 C-10 7 -10 7 -13 6 C-11.40089132 4.99193149 -9.79551738 3.99379615 -8.1875 3 C-7.29417969 2.443125 -6.40085938 1.88625 -5.48046875 1.3125 C-3 0 -3 0 0 0 Z " fill="#D7B464" transform="translate(141,23)"/>
<path d="M0 0 C0 4.62 0 9.24 0 14 C-0.33 14 -0.66 14 -1 14 C-1.33 12.35 -1.66 10.7 -2 9 C-2.33 9 -2.66 9 -3 9 C-3 6.36 -3 3.72 -3 1 C-1 0 -1 0 0 0 Z " fill="#EFC650" transform="translate(94,121)"/>
<path d="M0 0 C0.66 0.33 1.32 0.66 2 1 C1.01 2.98 0.02 4.96 -1 7 C-0.01 7.33 0.98 7.66 2 8 C-0.52475462 9.26237731 -2.31200466 9.09856404 -5.125 9.0625 C-6.03507812 9.05347656 -6.94515625 9.04445313 -7.8828125 9.03515625 C-8.58148438 9.02355469 -9.28015625 9.01195313 -10 9 C-10 8.67 -10 8.34 -10 8 C-6.535 7.505 -6.535 7.505 -3 7 C-3.33 6.34 -3.66 5.68 -4 5 C-2.68 3.35 -1.36 1.7 0 0 Z " fill="#AF690C" transform="translate(115,56)"/>
<path d="M0 0 C3.7602985 0.58107632 6.53035032 1.65199496 9.8125 3.5625 C10.60269531 4.01753906 11.39289062 4.47257812 12.20703125 4.94140625 C12.79871094 5.29074219 13.39039063 5.64007813 14 6 C11.3921814 6.98464547 10.31037786 7.1236295 7.67578125 6.07421875 C6.89589844 5.61660156 6.11601563 5.15898437 5.3125 4.6875 C4.52488281 4.23761719 3.73726562 3.78773437 2.92578125 3.32421875 C1 2 1 2 0 0 Z " fill="#E1C37B" transform="translate(50,23)"/>
<path d="M0 0 C1.65 0 3.3 0 5 0 C4.67 2.64 4.34 5.28 4 8 C3.01 8.33 2.02 8.66 1 9 C0.67 6.03 0.34 3.06 0 0 Z " fill="#F0C43D" transform="translate(74,119)"/>
<path d="M0 0 C0.75 1.6875 0.75 1.6875 1 4 C-1.13381449 7.2769294 -2.25018012 8.75006004 -6 10 C-8.33299825 10.03954234 -10.66708189 10.04401732 -13 10 C-13 9.67 -13 9.34 -13 9 C-11.01432292 8.51171875 -9.02864583 8.0234375 -7.04296875 7.53515625 C-5.34316798 7.08989295 -3.66698046 6.55566015 -2 6 C-0.77479736 2.99152582 -0.77479736 2.99152582 0 0 Z " fill="#C69639" transform="translate(119,98)"/>
<path d="M0 0 C0 0.99 0 1.98 0 3 C0.30342192 4.56858296 0.63910382 6.13113523 1 7.6875 C1.185625 8.49574219 1.37125 9.30398437 1.5625 10.13671875 C1.706875 10.75160156 1.85125 11.36648437 2 12 C1.34 12 0.68 12 0 12 C-1.32 9.03 -2.64 6.06 -4 3 C-2.68 2.01 -1.36 1.02 0 0 Z " fill="#E2B13C" transform="translate(100,95)"/>
<path d="M0 0 C1.32 0.33 2.64 0.66 4 1 C4 2.65 4 4.3 4 6 C2.68 6.33 1.36 6.66 0 7 C0 4.69 0 2.38 0 0 Z " fill="#F6EBD0" transform="translate(108,129)"/>
<path d="M0 0 C6.76923077 3.44615385 6.76923077 3.44615385 7.9375 6.25 C7.958125 6.8275 7.97875 7.405 8 8 C7.01 7.67 6.02 7.34 5 7 C5 6.34 5 5.68 5 5 C2.525 4.01 2.525 4.01 0 3 C0 2.01 0 1.02 0 0 Z " fill="#F3CB47" transform="translate(125,94)"/>
<path d="M0 0 C9.67768056 -0.86066329 9.67768056 -0.86066329 13.625 2.375 C16 5 16 5 16 7 C13 6 13 6 11 3 C8.35308332 2.19907746 8.35308332 2.19907746 5.375 1.8125 C3.87066406 1.57466797 3.87066406 1.57466797 2.3359375 1.33203125 C1.56507812 1.22246094 0.79421875 1.11289063 0 1 C0 0.67 0 0.34 0 0 Z " fill="#F8DE6A" transform="translate(104,88)"/>
<path d="M0 0 C-2 2 -2 2 -4.625 2.125 C-5.40875 2.08375 -6.1925 2.0425 -7 2 C-7 2.99 -7 3.98 -7 5 C-7.99 5.33 -8.98 5.66 -10 6 C-10 4.35 -10 2.7 -10 1 C-6.52674819 -0.1577506 -3.63932552 -0.06866652 0 0 Z " fill="#99590A" transform="translate(70,55)"/>
<path d="M0 0 C0.66 0 1.32 0 2 0 C1.64005447 2.6635969 1.28838998 4.58183452 -0.25 6.8125 C-2.58011277 8.39364795 -4.24501755 8.22337696 -7 8 C-6.21625 7.4225 -5.4325 6.845 -4.625 6.25 C-2.19952756 4.17102363 -1.14305583 2.90959667 0 0 Z " fill="#E7CD8D" transform="translate(90,36)"/>
<path d="M0 0 C1.32 0 2.64 0 4 0 C4 1.65 4 3.3 4 5 C2.68 5.33 1.36 5.66 0 6 C0 4.02 0 2.04 0 0 Z " fill="#FBF5E2" transform="translate(94,91)"/>
<path d="M0 0 C0.93065133 2.60582371 1.14917407 3.64198224 0.0625 6.25 C-0.4634375 7.11625 -0.4634375 7.11625 -1 8 C-1.99 7.34 -2.98 6.68 -4 6 C-2.25 1.125 -2.25 1.125 0 0 Z " fill="#EEBD3B" transform="translate(145,66)"/>
<path d="M0 0 C0.66 0 1.32 0 2 0 C2.33 0.66 2.66 1.32 3 2 C5.52733235 2.65555119 5.52733235 2.65555119 8 3 C8.33 2.01 8.66 1.02 9 0 C9 1.32 9 2.64 9 4 C7.329375 4.2165625 7.329375 4.2165625 5.625 4.4375 C2.17857953 4.78372035 2.17857953 4.78372035 0 6 C0 4.02 0 2.04 0 0 Z " fill="#EBC55E" transform="translate(121,102)"/>
<path d="M0 0 C1.65 0 3.3 0 5 0 C5 2.31 5 4.62 5 7 C4.01 7.33 3.02 7.66 2 8 C2 6.35 2 4.7 2 3 C1.01 3.495 1.01 3.495 0 4 C0 2.68 0 1.36 0 0 Z " fill="#CE8B17" transform="translate(68,56)"/>
<path d="M0 0 C1.65 0.99 3.3 1.98 5 3 C3.68799596 4.35432675 2.35368596 5.68733482 1 7 C0.67 7 0.34 7 0 7 C0 4.69 0 2.38 0 0 Z " fill="#AE711B" transform="translate(132,50)"/>
<path d="M0 0 C2.50037734 2.17424117 3.43628586 3.73045798 4 7 C3.01 7.66 2.02 8.32 1 9 C-0.4783226 6.04335481 -0.06032783 3.25770263 0 0 Z " fill="#F2E3C4" transform="translate(94,99)"/>
<path d="M0 0 C0.66 0.33 1.32 0.66 2 1 C1.67 2.98 1.34 4.96 1 7 C-0.32 6.67 -1.64 6.34 -3 6 C-1.125 1.125 -1.125 1.125 0 0 Z " fill="#AF6E16" transform="translate(133,33)"/>
<path d="M0 0 C1.98 0.99 3.96 1.98 6 3 C5.34 4.65 4.68 6.3 4 8 C1.84622436 5.37801226 0.59927826 3.35595828 0 0 Z " fill="#D5A245" transform="translate(51,24)"/>
<path d="M0 0 C0.66 0.33 1.32 0.66 2 1 C2.1875 3.375 2.1875 3.375 2 6 C1.01 6.66 0.02 7.32 -1 8 C-2 6 -2 6 -1.0625 2.875 C-0.5365625 1.451875 -0.5365625 1.451875 0 0 Z " fill="#DCAC38" transform="translate(113,129)"/>
<path d="M0 0 C1.32 0.66 2.64 1.32 4 2 C3.67 3.32 3.34 4.64 3 6 C1.68 5.67 0.36 5.34 -1 5 C-0.67 3.35 -0.34 1.7 0 0 Z " fill="#9B5D0F" transform="translate(133,57)"/>
<path d="M0 0 C0.33 0.66 0.66 1.32 1 2 C0.0625 4.625 0.0625 4.625 -1 7 C-1.99 6.01 -2.98 5.02 -4 4 C-3.67 3.01 -3.34 2.02 -3 1 C-2.01 0.67 -1.02 0.34 0 0 Z " fill="#D3982B" transform="translate(115,34)"/>
<path d="M0 0 C0.33 0 0.66 0 1 0 C0.67 2.97 0.34 5.94 0 9 C-0.66 9 -1.32 9 -2 9 C-2.25 3.375 -2.25 3.375 0 0 Z " fill="#DCA21F" transform="translate(62,97)"/>
<path d="M0 0 C1.65 0 3.3 0 5 0 C4.67 1.32 4.34 2.64 4 4 C3.34 4 2.68 4 2 4 C1.67 5.32 1.34 6.64 1 8 C0.67 5.36 0.34 2.72 0 0 Z " fill="#F7D757" transform="translate(58,86)"/>
<path d="M0 0 C2.5 2.3125 2.5 2.3125 5 5 C5 5.99 5 6.98 5 8 C4.01 7.67 3.02 7.34 2 7 C2 6.01 2 5.02 2 4 C1.34 4 0.68 4 0 4 C0 2.68 0 1.36 0 0 Z " fill="#CEA054" transform="translate(76,28)"/>
<path d="M0 0 C2.3125 -0.25 2.3125 -0.25 5 0 C6.8125 2 6.8125 2 8 4 C4 4 4 4 1.75 2 C1.1725 1.34 0.595 0.68 0 0 Z " fill="#BE8223" transform="translate(49,136)"/>
<path d="M0 0 C0.66 0.33 1.32 0.66 2 1 C0.515 4.465 0.515 4.465 -1 8 C-1.66 8 -2.32 8 -3 8 C-3 6.68 -3 5.36 -3 4 C-2.34 4 -1.68 4 -1 4 C-0.67 2.68 -0.34 1.36 0 0 Z " fill="#F2C73B" transform="translate(63,86)"/>
<path d="M0 0 C1.32 0.66 2.64 1.32 4 2 C3.34 3.98 2.68 5.96 2 8 C1 6 0 4 -1 2 C-0.67 1.34 -0.34 0.68 0 0 Z " fill="#B97A1A" transform="translate(140,62)"/>
</svg>
